<svg width="46" height="46" viewBox="0 0 46 46" fill="none" xmlns="http://www.w3.org/2000/svg">
<path fill-rule="evenodd" clip-rule="evenodd" d="M23 46.0078C16.8984 46.0078 11.047 43.582 6.73 39.2695C2.4175 34.9531 -0.00830078 29.1015 -0.00830078 22.9995C-0.00830078 16.8975 2.4175 11.0465 6.73 6.72951C11.0464 2.41701 16.898 -0.00878906 23 -0.00878906C29.102 -0.00878906 34.953 2.41701 39.27 6.72951C43.5825 11.0459 46.0083 16.8975 46.0083 22.9995C46.0083 29.1015 43.5825 34.9525 39.27 39.2695C34.9536 43.582 29.102 46.0078 23 46.0078ZM23 3.99981C17.9609 3.99981 13.1289 5.99981 9.566 9.56621C5.9996 13.1287 3.9996 17.9607 3.9996 23.0002C3.9996 28.0397 5.9996 32.8713 9.566 36.4342C13.1285 40.0006 17.9605 42.0006 23 42.0006C28.0395 42.0006 32.8711 40.0006 36.434 36.4342C40.0004 32.8717 42.0004 28.0397 42.0004 23.0002C42.0004 17.9607 40.0004 13.1291 36.434 9.56621C32.8715 5.99981 28.0395 3.99981 23 3.99981ZM32 24.9998H23C21.8945 24.9998 21 24.1053 21 22.9998V10.9998C21 9.89431 21.8945 8.99981 23 8.99981C24.1055 8.99981 25 9.89434 25 10.9998V20.9998H32C33.1055 20.9998 34 21.8943 34 22.9998C34 24.1053 33.1055 24.9998 32 24.9998Z" fill="black"/>
</svg>
