<svg width="86" height="58" viewBox="0 0 86 58" fill="none" xmlns="http://www.w3.org/2000/svg">
<path d="M10.793 57.4385H75.207C77.9726 57.4385 80.6211 56.3408 82.5742 54.3877C84.5273 52.4346 85.625 49.7861 85.625 47.0205V10.9815C85.625 8.21588 84.5273 5.56738 82.5742 3.61428C80.6211 1.66118 77.9726 0.563477 75.207 0.563477H10.793C5.0391 0.563477 0.375 5.22758 0.375 10.9815V47.0205C0.375 49.7861 1.4727 52.4346 3.4258 54.3877C5.3789 56.3408 8.0274 57.4385 10.793 57.4385ZM4.543 47.0205V10.9815C4.543 9.75488 4.90628 8.55568 5.5821 7.53228L30.2701 29.0013L5.5821 50.4703C4.90632 49.4469 4.543 48.247 4.543 47.0205ZM10.793 53.2705C10.1875 53.2705 9.5899 53.1845 9.0118 53.0127L33.4498 31.7627L37.7936 35.5518C40.778 38.1495 45.2233 38.1495 48.2076 35.5518L52.5631 31.7588L77.0011 53.0088V53.0127C76.423 53.1846 75.8214 53.2705 75.2199 53.2705L10.793 53.2705ZM80.418 7.53248C81.0938 8.55588 81.4571 9.75518 81.4571 10.9817V47.0207C81.4571 48.2473 81.0938 49.4465 80.418 50.4699L55.73 29.0009L80.418 7.53248ZM75.211 4.73168H75.2071C75.8126 4.73168 76.4102 4.81761 76.9883 4.98949L45.4573 32.4075C44.0471 33.6263 41.9534 33.6263 40.5432 32.4075L9.01219 5.04449C9.59031 4.87261 10.188 4.78277 10.7934 4.78277L75.211 4.73168Z" fill="black"/>
</svg>
