<svg width="442" height="360" viewBox="0 0 442 360" fill="none" xmlns="http://www.w3.org/2000/svg">
<path d="M86.63 179.33C85.73 174.65 81.59 172.13 76.37 172.13C72.05 172.13 68.18 174.11 68.27 178.16C68.45 182.48 73.58 183.47 79.34 184.82C88.52 186.98 97.16 190.76 97.16 199.4C97.16 208.85 88.43 213.08 77.99 213.08C66.56 213.08 57.47 206.78 56.75 196.7L67.1 196.16C67.82 201.2 72.23 204.17 77.99 204.17C82.58 204.17 86.9 203.09 86.9 199.04C86.9 194.81 81.5 194 76.01 192.74C66.56 190.49 58.01 186.71 58.01 178.34C58.01 168.89 66.74 163.22 77.18 163.22C87.44 163.22 95.36 169.34 96.89 178.79L86.63 179.33ZM122.595 151.7H132.405V164.3H150.675V172.94H132.405V196.97C132.405 200.93 134.565 203.36 138.525 203.36H150.495V212H137.535C127.185 212 122.595 206.69 122.595 197.78V172.94H109.185V164.3H122.595V151.7ZM162.07 164.3H172.6L185.38 200.48L197.89 164.3H208.24L189.34 217.04C187.27 222.89 183.31 225.5 176.92 225.5H170.17V217.04H175.75C178.27 217.04 179.71 216.14 180.61 213.8L182.05 210.11H179.26L162.07 164.3ZM220.355 164.3H229.265L229.625 172.22C232.055 166.19 237.095 163.22 243.395 163.22C253.835 163.22 258.965 170.78 258.965 181.31V212H249.245V183.56C249.245 175.46 246.635 171.23 240.515 171.23C234.125 171.23 230.075 175.46 230.075 183.56V212H220.355V164.3ZM271.169 188.15C271.169 172.94 279.899 163.22 293.489 163.22C304.469 163.22 314.459 170.33 314.999 187.52L315.089 190.76H281.519C282.239 199.22 286.559 204.17 293.489 204.17C298.079 204.17 302.129 201.56 304.019 197.06L314.369 197.96C311.669 207.23 303.299 213.08 293.489 213.08C279.899 213.08 271.169 203.36 271.169 188.15ZM281.789 183.47H304.469C303.209 175.19 298.619 172.13 293.489 172.13C287.099 172.13 282.959 176.27 281.789 183.47ZM356.454 179.33C355.554 174.65 351.414 172.13 346.194 172.13C341.874 172.13 338.004 174.11 338.094 178.16C338.274 182.48 343.404 183.47 349.164 184.82C358.344 186.98 366.984 190.76 366.984 199.4C366.984 208.85 358.254 213.08 347.814 213.08C336.384 213.08 327.294 206.78 326.574 196.7L336.924 196.16C337.644 201.2 342.054 204.17 347.814 204.17C352.404 204.17 356.724 203.09 356.724 199.04C356.724 194.81 351.324 194 345.834 192.74C336.384 190.49 327.834 186.71 327.834 178.34C327.834 168.89 336.564 163.22 347.004 163.22C357.264 163.22 365.184 169.34 366.714 178.79L356.454 179.33ZM394.759 200.21H406.819V212H394.759V200.21Z" fill="white"/>
<line y1="119.5" x2="440" y2="119.5" stroke="#222121" stroke-opacity="0.3"/>
<line y1="39.5" x2="440" y2="39.5" stroke="#222121" stroke-opacity="0.3"/>
<line y1="199.5" x2="440" y2="199.5" stroke="#222121" stroke-opacity="0.3"/>
<line y1="319.5" x2="440" y2="319.5" stroke="#222121" stroke-opacity="0.3"/>
<line y1="159.5" x2="440" y2="159.5" stroke="#222121" stroke-opacity="0.3"/>
<line y1="279.5" x2="440" y2="279.5" stroke="#222121" stroke-opacity="0.3"/>
<line y1="79.5" x2="440" y2="79.5" stroke="#222121" stroke-opacity="0.3"/>
<line y1="239.5" x2="440" y2="239.5" stroke="#222121" stroke-opacity="0.3"/>
<line x1="159.5" y1="359" x2="159.5" stroke="#222121" stroke-opacity="0.3"/>
<line x1="79.5" y1="359" x2="79.5" stroke="#222121" stroke-opacity="0.3"/>
<line x1="239.5" y1="360" x2="239.5" y2="1" stroke="#222121" stroke-opacity="0.3"/>
<line x1="359.5" y1="360" x2="359.5" y2="1" stroke="#222121" stroke-opacity="0.3"/>
<line x1="39.5" y1="360" x2="39.5" stroke="#222121" stroke-opacity="0.3"/>
<line x1="199.5" y1="359" x2="199.5" y2="1" stroke="#222121" stroke-opacity="0.3"/>
<line x1="319.5" y1="360" x2="319.5" y2="1" stroke="#222121" stroke-opacity="0.3"/>
<line x1="119.5" y1="359" x2="119.5" stroke="#222121" stroke-opacity="0.3"/>
<line x1="279.5" y1="360" x2="279.5" y2="1" stroke="#222121" stroke-opacity="0.3"/>
<line x1="399.5" y1="360" x2="399.5" y2="1" stroke="#222121" stroke-opacity="0.3"/>
</svg>
