<svg width="18" height="18" viewBox="0 0 18 18" fill="none" xmlns="http://www.w3.org/2000/svg">
<g clip-path="url(#clip0_511_328)">
<path fill-rule="evenodd" clip-rule="evenodd" d="M9.00023 0.375C6.86365 0.376109 4.79713 1.13284 3.17018 2.50989C1.54324 3.88694 0.461958 5.79451 0.119689 7.8915C-0.22258 9.98849 0.196476 12.1382 1.30193 13.9561C2.40739 15.7741 4.12716 17.1418 6.15373 17.8147C6.60082 17.8977 6.76923 17.6206 6.76923 17.385C6.76923 17.1494 6.76028 16.4663 6.7573 15.7194C4.25358 16.2603 3.72452 14.6629 3.72452 14.6629C3.31617 13.6256 2.72601 13.3529 2.72601 13.3529C1.90932 12.7987 2.78712 12.8091 2.78712 12.8091C3.69174 12.8728 4.16715 13.7323 4.16715 13.7323C4.96894 15.1 6.27295 14.7044 6.78562 14.4732C6.8661 13.8938 7.10008 13.4996 7.3579 13.2759C5.3579 13.0506 3.25656 12.283 3.25656 8.85407C3.24416 7.96478 3.57605 7.10479 4.18354 6.45201C4.09114 6.22677 3.78264 5.31692 4.27146 4.08107C4.27146 4.08107 5.02706 3.84102 6.74688 4.99833C8.22203 4.59722 9.77843 4.59722 11.2536 4.99833C12.9719 3.84102 13.726 4.08107 13.726 4.08107C14.2163 5.31396 13.9078 6.22381 13.8154 6.45201C14.4248 7.10489 14.7574 7.96639 14.7439 8.85703C14.7439 12.2934 12.6381 13.0506 10.6351 13.2714C10.957 13.55 11.2446 14.0938 11.2446 14.9296C11.2446 16.1269 11.2342 17.0901 11.2342 17.385C11.2342 17.6236 11.3966 17.9022 11.8527 17.8147C13.8795 17.1417 15.5994 15.7738 16.7049 13.9555C17.8103 12.1372 18.2291 9.98722 17.8865 7.89004C17.5438 5.79285 16.462 3.88527 14.8345 2.50845C13.207 1.13164 11.14 0.375406 9.0032 0.375H9.00023Z" fill="#262626"/>
<path d="M6.02075 14.9815C6.02075 15.0541 5.9373 15.1164 5.83 15.1178C5.72269 15.1193 5.63477 15.06 5.63477 14.9874C5.63477 14.9148 5.71822 14.8526 5.82552 14.8511C5.93282 14.8496 6.02075 14.9074 6.02075 14.9815Z" fill="#262626"/>
<path d="M6.7063 14.8674C6.71971 14.94 6.6452 15.0156 6.53789 15.0334C6.43059 15.0512 6.3367 15.0082 6.32329 14.9371C6.30988 14.866 6.38737 14.7889 6.49169 14.7696C6.59602 14.7504 6.69289 14.7948 6.7063 14.8674Z" fill="#262626"/>
<path d="M5.28463 14.9313C5.26228 15.0009 5.16093 15.0321 5.05959 15.0024C4.95825 14.9728 4.89119 14.8898 4.91056 14.8187C4.92993 14.7475 5.03277 14.7149 5.1356 14.7475C5.23843 14.7801 5.304 14.8587 5.28463 14.9313Z" fill="#262626"/>
<path d="M4.60946 14.6404C4.56028 14.6953 4.46044 14.6804 4.37847 14.6064C4.2965 14.5323 4.27712 14.4315 4.3263 14.3782C4.37548 14.3248 4.47533 14.3396 4.56028 14.4122C4.64523 14.4848 4.66163 14.5871 4.60946 14.6404V14.6404Z" fill="#262626"/>
<path d="M4.12815 14.1428C4.07301 14.1814 3.97912 14.1428 3.92696 14.0658C3.91253 14.052 3.90106 14.0354 3.89323 14.0171C3.88539 13.9987 3.88135 13.979 3.88135 13.9591C3.88135 13.9392 3.88539 13.9195 3.89323 13.9011C3.90106 13.8828 3.91253 13.8662 3.92696 13.8524C3.9821 13.8153 4.07599 13.8524 4.12815 13.928C4.18031 14.0035 4.1818 14.1043 4.12815 14.1428V14.1428Z" fill="#262626"/>
<path d="M3.77342 13.6284C3.74256 13.6438 3.70725 13.6481 3.67354 13.6406C3.63983 13.633 3.60981 13.614 3.58862 13.5869C3.5305 13.5246 3.51857 13.4387 3.56328 13.4002C3.60799 13.3616 3.68847 13.3794 3.7466 13.4416C3.80472 13.5039 3.81813 13.5898 3.77342 13.6284Z" fill="#262626"/>
<path d="M3.40842 13.224C3.38904 13.2684 3.31751 13.2818 3.25939 13.2506C3.20127 13.2195 3.15805 13.1617 3.17891 13.1158C3.19978 13.0699 3.26982 13.058 3.32795 13.0891C3.38607 13.1202 3.43077 13.1795 3.40842 13.224Z" fill="#262626"/>
</g>
<defs>
<clipPath id="clip0_511_328">
<rect width="18" height="18" fill="white"/>
</clipPath>
</defs>
</svg>
