<svg width="644" height="520" viewBox="0 0 644 520" fill="none" xmlns="http://www.w3.org/2000/svg">
<mask id="path-1-outside-1_584_216" maskUnits="userSpaceOnUse" x="21" y="152" width="604" height="62" fill="black">
<rect fill="white" x="21" y="152" width="604" height="62"/>
<path d="M22.7005 154.43H34.3585V174.195L50.2375 154.43H63.6375L46.5525 175.535L64.6425 202H51.5775L38.9145 183.24L34.3585 188.667V202H22.7005V154.43ZM71.1185 154.43H82.7765V202H71.1185V154.43ZM89.0457 202L106.198 154.43H119.665L136.817 202H124.891L121.742 193.022H104.054L100.972 202H89.0457ZM107.203 183.776H118.66L112.965 167.026L107.203 183.776ZM179.585 203.072C164.778 203.072 155.934 193.558 155.934 178.282C155.934 162.872 164.778 153.358 179.585 153.358C194.325 153.358 203.169 162.872 203.169 178.282C203.169 193.558 194.325 203.072 179.585 203.072ZM167.994 178.282C167.994 187.863 172.215 193.558 179.585 193.558C186.955 193.558 191.176 187.863 191.176 178.282C191.176 168.567 186.955 162.872 179.585 162.872C172.215 162.872 167.994 168.567 167.994 178.282ZM231.016 154.43C240.798 154.43 248.436 159.388 248.436 168.701C248.436 174.865 245.086 178.818 239.592 180.292C244.818 180.828 247.297 183.24 247.699 188.466L248.838 202H237.113L236.242 190.543C235.974 186.523 233.964 185.183 228.872 185.183H220.899V202H209.241V154.43H231.016ZM220.899 175.669H229.073C233.897 175.669 236.51 173.592 236.51 169.907C236.51 166.021 233.897 163.944 229.073 163.944H220.899V175.669ZM253.667 202L270.819 154.43H284.286L301.438 202H289.512L286.363 193.022H268.675L265.593 202H253.667ZM271.824 183.776H283.281L277.586 167.026L271.824 183.776ZM317.56 202L312.736 212.653H306.572L309.721 202H305.634V191.213H317.56V202ZM339.315 154.43H350.973V202H339.315V154.43ZM369.972 165.217L365.148 175.87H358.984L362.133 165.217H358.046V154.43H369.972V165.217ZM377.068 154.43H392.478L403.6 186.858L414.521 154.43H430.065V202H418.407V172.587L408.022 201.866H399.044L388.726 172.587V202H377.068V154.43ZM453.948 202V154.43H465.606V192.486H486.912V202H453.948ZM532.927 184.647C532.927 195.903 525.155 203.072 512.76 203.072C500.365 203.072 492.593 195.903 492.593 184.647V154.363H504.251V184.647C504.251 190.543 507.467 193.558 512.76 193.558C518.12 193.558 521.202 190.543 521.202 184.647V154.363H532.927V184.647ZM541.035 154.43H552.693V174.195L568.572 154.43H581.972L564.887 175.535L582.977 202H569.912L557.249 183.24L552.693 188.667V202H541.035V154.43ZM588.34 154.43H622.51V163.944H599.998V173.391H621.706V182.905H599.998V192.486H623.046V202H588.34V154.43Z"/>
</mask>
<path d="M22.7005 154.43H34.3585V174.195L50.2375 154.43H63.6375L46.5525 175.535L64.6425 202H51.5775L38.9145 183.24L34.3585 188.667V202H22.7005V154.43ZM71.1185 154.43H82.7765V202H71.1185V154.43ZM89.0457 202L106.198 154.43H119.665L136.817 202H124.891L121.742 193.022H104.054L100.972 202H89.0457ZM107.203 183.776H118.66L112.965 167.026L107.203 183.776ZM179.585 203.072C164.778 203.072 155.934 193.558 155.934 178.282C155.934 162.872 164.778 153.358 179.585 153.358C194.325 153.358 203.169 162.872 203.169 178.282C203.169 193.558 194.325 203.072 179.585 203.072ZM167.994 178.282C167.994 187.863 172.215 193.558 179.585 193.558C186.955 193.558 191.176 187.863 191.176 178.282C191.176 168.567 186.955 162.872 179.585 162.872C172.215 162.872 167.994 168.567 167.994 178.282ZM231.016 154.43C240.798 154.43 248.436 159.388 248.436 168.701C248.436 174.865 245.086 178.818 239.592 180.292C244.818 180.828 247.297 183.24 247.699 188.466L248.838 202H237.113L236.242 190.543C235.974 186.523 233.964 185.183 228.872 185.183H220.899V202H209.241V154.43H231.016ZM220.899 175.669H229.073C233.897 175.669 236.51 173.592 236.51 169.907C236.51 166.021 233.897 163.944 229.073 163.944H220.899V175.669ZM253.667 202L270.819 154.43H284.286L301.438 202H289.512L286.363 193.022H268.675L265.593 202H253.667ZM271.824 183.776H283.281L277.586 167.026L271.824 183.776ZM317.56 202L312.736 212.653H306.572L309.721 202H305.634V191.213H317.56V202ZM339.315 154.43H350.973V202H339.315V154.43ZM369.972 165.217L365.148 175.87H358.984L362.133 165.217H358.046V154.43H369.972V165.217ZM377.068 154.43H392.478L403.6 186.858L414.521 154.43H430.065V202H418.407V172.587L408.022 201.866H399.044L388.726 172.587V202H377.068V154.43ZM453.948 202V154.43H465.606V192.486H486.912V202H453.948ZM532.927 184.647C532.927 195.903 525.155 203.072 512.76 203.072C500.365 203.072 492.593 195.903 492.593 184.647V154.363H504.251V184.647C504.251 190.543 507.467 193.558 512.76 193.558C518.12 193.558 521.202 190.543 521.202 184.647V154.363H532.927V184.647ZM541.035 154.43H552.693V174.195L568.572 154.43H581.972L564.887 175.535L582.977 202H569.912L557.249 183.24L552.693 188.667V202H541.035V154.43ZM588.34 154.43H622.51V163.944H599.998V173.391H621.706V182.905H599.998V192.486H623.046V202H588.34V154.43Z" fill="#262626"/>
<path d="M22.7005 154.43V153.43H21.7005V154.43H22.7005ZM34.3585 154.43H35.3585V153.43H34.3585V154.43ZM34.3585 174.195H33.3585V177.036L35.1381 174.821L34.3585 174.195ZM50.2375 154.43V153.43H49.7582L49.458 153.804L50.2375 154.43ZM63.6375 154.43L64.4148 155.059L65.7337 153.43H63.6375V154.43ZM46.5525 175.535L45.7753 174.906L45.3068 175.485L45.727 176.099L46.5525 175.535ZM64.6425 202V203H66.5374L65.4681 201.436L64.6425 202ZM51.5775 202L50.7487 202.559L51.046 203H51.5775V202ZM38.9145 183.24L39.7434 182.681L39.0014 181.581L38.1486 182.597L38.9145 183.24ZM34.3585 188.667L33.5926 188.024L33.3585 188.303V188.667H34.3585ZM34.3585 202V203H35.3585V202H34.3585ZM22.7005 202H21.7005V203H22.7005V202ZM22.7005 155.43H34.3585V153.43H22.7005V155.43ZM33.3585 154.43V174.195H35.3585V154.43H33.3585ZM35.1381 174.821L51.0171 155.056L49.458 153.804L33.579 173.569L35.1381 174.821ZM50.2375 155.43H63.6375V153.43H50.2375V155.43ZM62.8603 153.801L45.7753 174.906L47.3298 176.164L64.4148 155.059L62.8603 153.801ZM45.727 176.099L63.817 202.564L65.4681 201.436L47.3781 174.971L45.727 176.099ZM64.6425 201H51.5775V203H64.6425V201ZM52.4064 201.441L39.7434 182.681L38.0857 183.799L50.7487 202.559L52.4064 201.441ZM38.1486 182.597L33.5926 188.024L35.1244 189.31L39.6804 183.883L38.1486 182.597ZM33.3585 188.667V202H35.3585V188.667H33.3585ZM34.3585 201H22.7005V203H34.3585V201ZM23.7005 202V154.43H21.7005V202H23.7005ZM71.1185 154.43V153.43H70.1185V154.43H71.1185ZM82.7765 154.43H83.7765V153.43H82.7765V154.43ZM82.7765 202V203H83.7765V202H82.7765ZM71.1185 202H70.1185V203H71.1185V202ZM71.1185 155.43H82.7765V153.43H71.1185V155.43ZM81.7765 154.43V202H83.7765V154.43H81.7765ZM82.7765 201H71.1185V203H82.7765V201ZM72.1185 202V154.43H70.1185V202H72.1185ZM89.0457 202L88.105 201.661L87.6221 203H89.0457V202ZM106.198 154.43V153.43H105.495L105.257 154.091L106.198 154.43ZM119.665 154.43L120.605 154.091L120.367 153.43H119.665V154.43ZM136.817 202V203H138.24L137.757 201.661L136.817 202ZM124.891 202L123.947 202.331L124.182 203H124.891V202ZM121.742 193.022L122.685 192.691L122.451 192.022H121.742V193.022ZM104.054 193.022V192.022H103.34L103.108 192.697L104.054 193.022ZM100.972 202V203H101.686L101.918 202.325L100.972 202ZM107.203 183.776L106.257 183.451L105.801 184.776H107.203V183.776ZM118.66 183.776V184.776H120.056L119.606 183.454L118.66 183.776ZM112.965 167.026L113.911 166.704L112.97 163.936L112.019 166.701L112.965 167.026ZM89.9864 202.339L107.138 154.769L105.257 154.091L88.105 201.661L89.9864 202.339ZM106.198 155.43H119.665V153.43H106.198V155.43ZM118.724 154.769L135.876 202.339L137.757 201.661L120.605 154.091L118.724 154.769ZM136.817 201H124.891V203H136.817V201ZM125.834 201.669L122.685 192.691L120.798 193.353L123.947 202.331L125.834 201.669ZM121.742 192.022H104.054V194.022H121.742V192.022ZM103.108 192.697L100.026 201.675L101.918 202.325L105 193.347L103.108 192.697ZM100.972 201H89.0457V203H100.972V201ZM107.203 184.776H118.66V182.776H107.203V184.776ZM119.606 183.454L113.911 166.704L112.018 167.348L117.713 184.098L119.606 183.454ZM112.019 166.701L106.257 183.451L108.148 184.101L113.91 167.351L112.019 166.701ZM179.585 202.072C172.402 202.072 166.771 199.77 162.933 195.718C159.087 191.658 156.934 185.73 156.934 178.282H154.934C154.934 186.11 157.202 192.577 161.481 197.093C165.766 201.617 171.961 204.072 179.585 204.072V202.072ZM156.934 178.282C156.934 170.765 159.088 164.803 162.934 160.728C166.772 156.66 172.402 154.358 179.585 154.358V152.358C171.961 152.358 165.765 154.813 161.479 159.355C157.201 163.889 154.934 170.389 154.934 178.282H156.934ZM179.585 154.358C186.733 154.358 192.346 156.659 196.176 160.727C200.014 164.802 202.169 170.765 202.169 178.282H204.169C204.169 170.389 201.902 163.89 197.632 159.356C193.356 154.814 187.177 152.358 179.585 152.358V154.358ZM202.169 178.282C202.169 185.73 200.015 191.659 196.178 195.719C192.347 199.771 186.733 202.072 179.585 202.072V204.072C187.176 204.072 193.355 201.616 197.631 197.092C201.9 192.576 204.169 186.11 204.169 178.282H202.169ZM166.994 178.282C166.994 183.201 168.075 187.261 170.227 190.115C172.407 193.007 175.612 194.558 179.585 194.558V192.558C176.188 192.558 173.596 191.262 171.824 188.911C170.023 186.522 168.994 182.944 168.994 178.282H166.994ZM179.585 194.558C183.558 194.558 186.762 193.007 188.942 190.115C191.094 187.261 192.176 183.201 192.176 178.282H190.176C190.176 182.944 189.146 186.522 187.345 188.911C185.573 191.262 182.982 192.558 179.585 192.558V194.558ZM192.176 178.282C192.176 173.298 191.096 169.206 188.944 166.334C186.764 163.424 183.558 161.872 179.585 161.872V163.872C182.981 163.872 185.571 165.168 187.344 167.533C189.145 169.938 190.176 173.551 190.176 178.282H192.176ZM179.585 161.872C175.611 161.872 172.406 163.424 170.225 166.334C168.074 169.206 166.994 173.298 166.994 178.282H168.994C168.994 173.551 170.024 169.938 171.826 167.533C173.598 165.168 176.188 163.872 179.585 163.872V161.872ZM239.592 180.292L239.332 179.326L239.49 181.287L239.592 180.292ZM247.699 188.466L246.701 188.543L246.702 188.55L247.699 188.466ZM248.838 202V203H249.925L249.834 201.916L248.838 202ZM237.113 202L236.115 202.076L236.186 203H237.113V202ZM236.242 190.543L235.244 190.61L235.244 190.619L236.242 190.543ZM220.899 185.183V184.183H219.899V185.183H220.899ZM220.899 202V203H221.899V202H220.899ZM209.241 202H208.241V203H209.241V202ZM209.241 154.43V153.43H208.241V154.43H209.241ZM220.899 175.669H219.899V176.669H220.899V175.669ZM220.899 163.944V162.944H219.899V163.944H220.899ZM231.016 155.43C235.751 155.43 239.873 156.632 242.785 158.866C245.667 161.078 247.436 164.351 247.436 168.701H249.436C249.436 163.738 247.385 159.875 244.003 157.28C240.65 154.707 236.062 153.43 231.016 153.43V155.43ZM247.436 168.701C247.436 171.596 246.652 173.898 245.287 175.638C243.92 177.381 241.911 178.634 239.332 179.326L239.851 181.258C242.766 180.476 245.179 179.016 246.861 176.872C248.544 174.726 249.436 171.97 249.436 168.701H247.436ZM239.49 181.287C241.98 181.542 243.649 182.229 244.747 183.327C245.841 184.421 246.511 186.066 246.702 188.543L248.696 188.389C248.484 185.64 247.714 183.466 246.161 181.913C244.613 180.365 242.429 179.578 239.694 179.297L239.49 181.287ZM246.702 188.55L247.841 202.084L249.834 201.916L248.695 188.382L246.702 188.55ZM248.838 201H237.113V203H248.838V201ZM238.11 201.924L237.239 190.467L235.244 190.619L236.115 202.076L238.11 201.924ZM237.239 190.476C237.095 188.316 236.463 186.624 234.947 185.542C233.504 184.511 231.454 184.183 228.872 184.183V186.183C231.381 186.183 232.882 186.525 233.784 187.169C234.614 187.762 235.12 188.75 235.244 190.61L237.239 190.476ZM228.872 184.183H220.899V186.183H228.872V184.183ZM219.899 185.183V202H221.899V185.183H219.899ZM220.899 201H209.241V203H220.899V201ZM210.241 202V154.43H208.241V202H210.241ZM209.241 155.43H231.016V153.43H209.241V155.43ZM220.899 176.669H229.073V174.669H220.899V176.669ZM229.073 176.669C231.608 176.669 233.718 176.126 235.215 174.958C236.75 173.761 237.51 172.009 237.51 169.907H235.51C235.51 171.49 234.962 172.619 233.985 173.381C232.969 174.174 231.361 174.669 229.073 174.669V176.669ZM237.51 169.907C237.51 167.722 236.763 165.918 235.225 164.687C233.724 163.487 231.607 162.944 229.073 162.944V164.944C231.362 164.944 232.964 165.44 233.975 166.249C234.95 167.029 235.51 168.206 235.51 169.907H237.51ZM229.073 162.944H220.899V164.944H229.073V162.944ZM219.899 163.944V175.669H221.899V163.944H219.899ZM253.667 202L252.726 201.661L252.243 203H253.667V202ZM270.819 154.43V153.43H270.116L269.878 154.091L270.819 154.43ZM284.286 154.43L285.227 154.091L284.988 153.43H284.286V154.43ZM301.438 202V203H302.861L302.379 201.661L301.438 202ZM289.512 202L288.568 202.331L288.803 203H289.512V202ZM286.363 193.022L287.306 192.691L287.072 192.022H286.363V193.022ZM268.675 193.022V192.022H267.961L267.729 192.697L268.675 193.022ZM265.593 202V203H266.307L266.539 202.325L265.593 202ZM271.824 183.776L270.878 183.451L270.422 184.776H271.824V183.776ZM283.281 183.776V184.776H284.677L284.228 183.454L283.281 183.776ZM277.586 167.026L278.533 166.704L277.591 163.936L276.64 166.701L277.586 167.026ZM254.608 202.339L271.76 154.769L269.878 154.091L252.726 201.661L254.608 202.339ZM270.819 155.43H284.286V153.43H270.819V155.43ZM283.345 154.769L300.497 202.339L302.379 201.661L285.227 154.091L283.345 154.769ZM301.438 201H289.512V203H301.438V201ZM290.455 201.669L287.306 192.691L285.419 193.353L288.568 202.331L290.455 201.669ZM286.363 192.022H268.675V194.022H286.363V192.022ZM267.729 192.697L264.647 201.675L266.539 202.325L269.621 193.347L267.729 192.697ZM265.593 201H253.667V203H265.593V201ZM271.824 184.776H283.281V182.776H271.824V184.776ZM284.228 183.454L278.533 166.704L276.639 167.348L282.334 184.098L284.228 183.454ZM276.64 166.701L270.878 183.451L272.769 184.101L278.531 167.351L276.64 166.701ZM317.56 202L318.471 202.413L318.56 202.216V202H317.56ZM312.736 212.653V213.653H313.381L313.647 213.066L312.736 212.653ZM306.572 212.653L305.613 212.37L305.233 213.653H306.572V212.653ZM309.721 202L310.68 202.283L311.059 201H309.721V202ZM305.634 202H304.634V203H305.634V202ZM305.634 191.213V190.213H304.634V191.213H305.634ZM317.56 191.213H318.56V190.213H317.56V191.213ZM316.649 201.587L311.825 212.24L313.647 213.066L318.471 202.413L316.649 201.587ZM312.736 211.653H306.572V213.653H312.736V211.653ZM307.531 212.936L310.68 202.283L308.762 201.717L305.613 212.37L307.531 212.936ZM309.721 201H305.634V203H309.721V201ZM306.634 202V191.213H304.634V202H306.634ZM305.634 192.213H317.56V190.213H305.634V192.213ZM316.56 191.213V202H318.56V191.213H316.56ZM339.315 154.43V153.43H338.315V154.43H339.315ZM350.973 154.43H351.973V153.43H350.973V154.43ZM350.973 202V203H351.973V202H350.973ZM339.315 202H338.315V203H339.315V202ZM339.315 155.43H350.973V153.43H339.315V155.43ZM349.973 154.43V202H351.973V154.43H349.973ZM350.973 201H339.315V203H350.973V201ZM340.315 202V154.43H338.315V202H340.315ZM369.972 165.217L370.883 165.63L370.972 165.433V165.217H369.972ZM365.148 175.87V176.87H365.793L366.059 176.283L365.148 175.87ZM358.984 175.87L358.025 175.587L357.646 176.87H358.984V175.87ZM362.133 165.217L363.092 165.5L363.471 164.217H362.133V165.217ZM358.046 165.217H357.046V166.217H358.046V165.217ZM358.046 154.43V153.43H357.046V154.43H358.046ZM369.972 154.43H370.972V153.43H369.972V154.43ZM369.061 164.804L364.237 175.457L366.059 176.283L370.883 165.63L369.061 164.804ZM365.148 174.87H358.984V176.87H365.148V174.87ZM359.943 176.153L363.092 165.5L361.174 164.934L358.025 175.587L359.943 176.153ZM362.133 164.217H358.046V166.217H362.133V164.217ZM359.046 165.217V154.43H357.046V165.217H359.046ZM358.046 155.43H369.972V153.43H358.046V155.43ZM368.972 154.43V165.217H370.972V154.43H368.972ZM377.068 154.43V153.43H376.068V154.43H377.068ZM392.478 154.43L393.424 154.106L393.192 153.43H392.478V154.43ZM403.6 186.858L402.654 187.182L403.608 189.966L404.547 187.177L403.6 186.858ZM414.521 154.43V153.43H413.802L413.573 154.111L414.521 154.43ZM430.065 154.43H431.065V153.43H430.065V154.43ZM430.065 202V203H431.065V202H430.065ZM418.407 202H417.407V203H418.407V202ZM418.407 172.587H419.407L417.464 172.253L418.407 172.587ZM408.022 201.866V202.866H408.728L408.964 202.2L408.022 201.866ZM399.044 201.866L398.101 202.198L398.336 202.866H399.044V201.866ZM388.726 172.587L389.669 172.255L387.726 172.587H388.726ZM388.726 202V203H389.726V202H388.726ZM377.068 202H376.068V203H377.068V202ZM377.068 155.43H392.478V153.43H377.068V155.43ZM391.532 154.754L402.654 187.182L404.546 186.534L393.424 154.106L391.532 154.754ZM404.547 187.177L415.468 154.749L413.573 154.111L402.652 186.539L404.547 187.177ZM414.521 155.43H430.065V153.43H414.521V155.43ZM429.065 154.43V202H431.065V154.43H429.065ZM430.065 201H418.407V203H430.065V201ZM419.407 202V172.587H417.407V202H419.407ZM417.464 172.253L407.079 201.532L408.964 202.2L419.349 172.921L417.464 172.253ZM408.022 200.866H399.044V202.866H408.022V200.866ZM399.987 201.534L389.669 172.255L387.783 172.919L398.101 202.198L399.987 201.534ZM387.726 172.587V202H389.726V172.587H387.726ZM388.726 201H377.068V203H388.726V201ZM378.068 202V154.43H376.068V202H378.068ZM453.948 202H452.948V203H453.948V202ZM453.948 154.43V153.43H452.948V154.43H453.948ZM465.606 154.43H466.606V153.43H465.606V154.43ZM465.606 192.486H464.606V193.486H465.606V192.486ZM486.912 192.486H487.912V191.486H486.912V192.486ZM486.912 202V203H487.912V202H486.912ZM454.948 202V154.43H452.948V202H454.948ZM453.948 155.43H465.606V153.43H453.948V155.43ZM464.606 154.43V192.486H466.606V154.43H464.606ZM465.606 193.486H486.912V191.486H465.606V193.486ZM485.912 192.486V202H487.912V192.486H485.912ZM486.912 201H453.948V203H486.912V201ZM492.593 154.363V153.363H491.593V154.363H492.593ZM504.251 154.363H505.251V153.363H504.251V154.363ZM521.202 154.363V153.363H520.202V154.363H521.202ZM532.927 154.363H533.927V153.363H532.927V154.363ZM531.927 184.647C531.927 190.034 530.074 194.358 526.816 197.343C523.548 200.337 518.768 202.072 512.76 202.072V204.072C519.147 204.072 524.45 202.223 528.167 198.818C531.894 195.404 533.927 190.516 533.927 184.647H531.927ZM512.76 202.072C506.752 202.072 501.971 200.337 498.704 197.343C495.446 194.358 493.593 190.034 493.593 184.647H491.593C491.593 190.516 493.626 195.404 497.353 198.818C501.07 202.223 506.373 204.072 512.76 204.072V202.072ZM493.593 184.647V154.363H491.593V184.647H493.593ZM492.593 155.363H504.251V153.363H492.593V155.363ZM503.251 154.363V184.647H505.251V154.363H503.251ZM503.251 184.647C503.251 187.772 504.106 190.283 505.808 192.015C507.511 193.748 509.927 194.558 512.76 194.558V192.558C510.3 192.558 508.461 191.861 507.234 190.612C506.004 189.362 505.251 187.418 505.251 184.647H503.251ZM512.76 194.558C515.624 194.558 518.028 193.749 519.71 192.008C521.387 190.273 522.202 187.761 522.202 184.647H520.202C520.202 187.429 519.476 189.372 518.272 190.619C517.073 191.86 515.256 192.558 512.76 192.558V194.558ZM522.202 184.647V154.363H520.202V184.647H522.202ZM521.202 155.363H532.927V153.363H521.202V155.363ZM531.927 154.363V184.647H533.927V154.363H531.927ZM541.035 154.43V153.43H540.035V154.43H541.035ZM552.693 154.43H553.693V153.43H552.693V154.43ZM552.693 174.195H551.693V177.036L553.472 174.821L552.693 174.195ZM568.572 154.43V153.43H568.092L567.792 153.804L568.572 154.43ZM581.971 154.43L582.749 155.059L584.068 153.43H581.971V154.43ZM564.887 175.535L564.109 174.906L563.641 175.485L564.061 176.099L564.887 175.535ZM582.977 202V203H584.871L583.802 201.436L582.977 202ZM569.911 202L569.083 202.559L569.38 203H569.911V202ZM557.249 183.24L558.077 182.681L557.335 181.581L556.483 182.597L557.249 183.24ZM552.693 188.667L551.927 188.024L551.693 188.303V188.667H552.693ZM552.693 202V203H553.693V202H552.693ZM541.035 202H540.035V203H541.035V202ZM541.035 155.43H552.693V153.43H541.035V155.43ZM551.693 154.43V174.195H553.693V154.43H551.693ZM553.472 174.821L569.351 155.056L567.792 153.804L551.913 173.569L553.472 174.821ZM568.572 155.43H581.971V153.43H568.572V155.43ZM581.194 153.801L564.109 174.906L565.664 176.164L582.749 155.059L581.194 153.801ZM564.061 176.099L582.151 202.564L583.802 201.436L565.712 174.971L564.061 176.099ZM582.977 201H569.911V203H582.977V201ZM570.74 201.441L558.077 182.681L556.42 183.799L569.083 202.559L570.74 201.441ZM556.483 182.597L551.927 188.024L553.458 189.31L558.014 183.883L556.483 182.597ZM551.693 188.667V202H553.693V188.667H551.693ZM552.693 201H541.035V203H552.693V201ZM542.035 202V154.43H540.035V202H542.035ZM588.34 154.43V153.43H587.34V154.43H588.34ZM622.51 154.43H623.51V153.43H622.51V154.43ZM622.51 163.944V164.944H623.51V163.944H622.51ZM599.998 163.944V162.944H598.998V163.944H599.998ZM599.998 173.391H598.998V174.391H599.998V173.391ZM621.706 173.391H622.706V172.391H621.706V173.391ZM621.706 182.905V183.905H622.706V182.905H621.706ZM599.998 182.905V181.905H598.998V182.905H599.998ZM599.998 192.486H598.998V193.486H599.998V192.486ZM623.046 192.486H624.046V191.486H623.046V192.486ZM623.046 202V203H624.046V202H623.046ZM588.34 202H587.34V203H588.34V202ZM588.34 155.43H622.51V153.43H588.34V155.43ZM621.51 154.43V163.944H623.51V154.43H621.51ZM622.51 162.944H599.998V164.944H622.51V162.944ZM598.998 163.944V173.391H600.998V163.944H598.998ZM599.998 174.391H621.706V172.391H599.998V174.391ZM620.706 173.391V182.905H622.706V173.391H620.706ZM621.706 181.905H599.998V183.905H621.706V181.905ZM598.998 182.905V192.486H600.998V182.905H598.998ZM599.998 193.486H623.046V191.486H599.998V193.486ZM622.046 192.486V202H624.046V192.486H622.046ZM623.046 201H588.34V203H623.046V201ZM589.34 202V154.43H587.34V202H589.34Z" fill="#262626" mask="url(#path-1-outside-1_584_216)"/>
<path d="M22.7005 234.43V232.93H21.2005V234.43H22.7005ZM34.3585 234.43H35.8585V232.93H34.3585V234.43ZM34.3585 254.195H32.8585V258.457L35.5279 255.134L34.3585 254.195ZM50.2375 234.43V232.93H49.5185L49.0682 233.491L50.2375 234.43ZM63.6375 234.43L64.8034 235.374L66.7817 232.93H63.6375V234.43ZM46.5525 255.535L45.3867 254.591L44.6839 255.459L45.3142 256.381L46.5525 255.535ZM64.6425 282V283.5H67.4848L65.8809 281.154L64.6425 282ZM51.5775 282L50.3343 282.839L50.7803 283.5H51.5775V282ZM38.9145 263.24L40.1578 262.401L39.0448 260.752L37.7657 262.276L38.9145 263.24ZM34.3585 268.667L33.2097 267.703L32.8585 268.121V268.667H34.3585ZM34.3585 282V283.5H35.8585V282H34.3585ZM22.7005 282H21.2005V283.5H22.7005V282ZM22.7005 235.93H34.3585V232.93H22.7005V235.93ZM32.8585 234.43V254.195H35.8585V234.43H32.8585ZM35.5279 255.134L51.4069 235.369L49.0682 233.491L33.1892 253.256L35.5279 255.134ZM50.2375 235.93H63.6375V232.93H50.2375V235.93ZM62.4717 233.486L45.3867 254.591L47.7184 256.479L64.8034 235.374L62.4717 233.486ZM45.3142 256.381L63.4042 282.846L65.8809 281.154L47.7909 254.689L45.3142 256.381ZM64.6425 280.5H51.5775V283.5H64.6425V280.5ZM52.8208 281.161L40.1578 262.401L37.6713 264.079L50.3343 282.839L52.8208 281.161ZM37.7657 262.276L33.2097 267.703L35.5074 269.631L40.0634 264.204L37.7657 262.276ZM32.8585 268.667V282H35.8585V268.667H32.8585ZM34.3585 280.5H22.7005V283.5H34.3585V280.5ZM24.2005 282V234.43H21.2005V282H24.2005ZM71.1185 234.43V232.93H69.6185V234.43H71.1185ZM82.7765 234.43H84.2765V232.93H82.7765V234.43ZM82.7765 282V283.5H84.2765V282H82.7765ZM71.1185 282H69.6185V283.5H71.1185V282ZM71.1185 235.93H82.7765V232.93H71.1185V235.93ZM81.2765 234.43V282H84.2765V234.43H81.2765ZM82.7765 280.5H71.1185V283.5H82.7765V280.5ZM72.6185 282V234.43H69.6185V282H72.6185ZM89.0457 282L87.6346 281.491L86.9103 283.5H89.0457V282ZM106.198 234.43V232.93H105.144L104.787 233.921L106.198 234.43ZM119.665 234.43L121.076 233.921L120.718 232.93H119.665V234.43ZM136.817 282V283.5H138.952L138.228 281.491L136.817 282ZM124.891 282L123.475 282.496L123.827 283.5H124.891V282ZM121.742 273.022L123.157 272.526L122.805 271.522H121.742V273.022ZM104.054 273.022V271.522H102.983L102.635 272.535L104.054 273.022ZM100.972 282V283.5H102.043L102.39 282.487L100.972 282ZM107.203 263.776L105.784 263.288L105.1 265.276H107.203V263.776ZM118.66 263.776V265.276H120.754L120.08 263.293L118.66 263.776ZM112.965 247.026L114.385 246.543L112.973 242.391L111.546 246.538L112.965 247.026ZM90.4568 282.509L107.609 234.939L104.787 233.921L87.6346 281.491L90.4568 282.509ZM106.198 235.93H119.665V232.93H106.198V235.93ZM118.254 234.939L135.406 282.509L138.228 281.491L121.076 233.921L118.254 234.939ZM136.817 280.5H124.891V283.5H136.817V280.5ZM126.306 281.504L123.157 272.526L120.326 273.518L123.475 282.496L126.306 281.504ZM121.742 271.522H104.054V274.522H121.742V271.522ZM102.635 272.535L99.553 281.513L102.39 282.487L105.472 273.509L102.635 272.535ZM100.972 280.5H89.0457V283.5H100.972V280.5ZM107.203 265.276H118.66V262.276H107.203V265.276ZM120.08 263.293L114.385 246.543L111.545 247.509L117.24 264.259L120.08 263.293ZM111.546 246.538L105.784 263.288L108.621 264.264L114.383 247.514L111.546 246.538ZM179.585 281.572C172.512 281.572 167.023 279.309 163.296 275.374C159.559 271.429 157.434 265.635 157.434 258.282H154.434C154.434 266.205 156.731 272.806 161.118 277.437C165.514 282.078 171.85 284.572 179.585 284.572V281.572ZM157.434 258.282C157.434 250.859 159.56 245.031 163.298 241.071C167.024 237.121 172.512 234.858 179.585 234.858V231.858C171.85 231.858 165.513 234.352 161.116 239.012C156.729 243.661 154.434 250.295 154.434 258.282H157.434ZM179.585 234.858C186.622 234.858 192.093 237.12 195.812 241.07C199.542 245.031 201.669 250.859 201.669 258.282H204.669C204.669 250.295 202.373 243.661 197.996 239.013C193.608 234.353 187.287 231.858 179.585 231.858V234.858ZM201.669 258.282C201.669 265.635 199.544 271.43 195.814 275.375C192.095 279.31 186.622 281.572 179.585 281.572V284.572C187.287 284.572 193.607 282.077 197.994 277.436C202.372 272.805 204.669 266.205 204.669 258.282H201.669ZM166.494 258.282C166.494 263.266 167.588 267.445 169.828 270.416C172.11 273.443 175.468 275.058 179.585 275.058V272.058C176.332 272.058 173.894 270.825 172.223 268.61C170.51 266.338 169.494 262.879 169.494 258.282H166.494ZM179.585 275.058C183.702 275.058 187.059 273.443 189.342 270.416C191.581 267.445 192.676 263.266 192.676 258.282H189.676C189.676 262.879 188.659 266.338 186.946 268.61C185.276 270.825 182.838 272.058 179.585 272.058V275.058ZM192.676 258.282C192.676 253.235 191.583 249.023 189.344 246.034C187.062 242.988 183.703 241.372 179.585 241.372V244.372C182.837 244.372 185.273 245.604 186.943 247.833C188.658 250.121 189.676 253.614 189.676 258.282H192.676ZM179.585 241.372C175.467 241.372 172.108 242.988 169.825 246.034C167.586 249.023 166.494 253.235 166.494 258.282H169.494C169.494 253.614 170.512 250.121 172.226 247.833C173.896 245.604 176.333 244.372 179.585 244.372V241.372ZM239.592 260.292L239.203 258.843L239.439 261.784L239.592 260.292ZM247.699 268.466L246.203 268.581L246.204 268.592L247.699 268.466ZM248.838 282V283.5H250.469L250.332 281.874L248.838 282ZM237.113 282L235.617 282.114L235.722 283.5H237.113V282ZM236.242 270.543L234.745 270.643L234.746 270.657L236.242 270.543ZM220.899 265.183V263.683H219.399V265.183H220.899ZM220.899 282V283.5H222.399V282H220.899ZM209.241 282H207.741V283.5H209.241V282ZM209.241 234.43V232.93H207.741V234.43H209.241ZM220.899 255.669H219.399V257.169H220.899V255.669ZM220.899 243.944V242.444H219.399V243.944H220.899ZM231.016 235.93C235.674 235.93 239.678 237.113 242.481 239.263C245.238 241.379 246.936 244.505 246.936 248.701H249.936C249.936 243.584 247.814 239.574 244.307 236.883C240.845 234.226 236.139 232.93 231.016 232.93V235.93ZM246.936 248.701C246.936 251.503 246.179 253.691 244.894 255.329C243.605 256.972 241.697 258.174 239.203 258.843L239.98 261.741C242.98 260.936 245.494 259.425 247.254 257.181C249.017 254.933 249.936 252.063 249.936 248.701H246.936ZM239.439 261.784C241.868 262.033 243.407 262.695 244.393 263.681C245.373 264.66 246.018 266.172 246.203 268.581L249.194 268.351C248.977 265.534 248.182 263.227 246.515 261.56C244.854 259.899 242.541 259.087 239.745 258.8L239.439 261.784ZM246.204 268.592L247.343 282.126L250.332 281.874L249.193 268.34L246.204 268.592ZM248.838 280.5H237.113V283.5H248.838V280.5ZM238.608 281.886L237.737 270.429L234.746 270.657L235.617 282.114L238.608 281.886ZM237.738 270.443C237.589 268.208 236.925 266.34 235.237 265.135C233.66 264.008 231.472 263.683 228.872 263.683V266.683C231.363 266.683 232.726 267.028 233.494 267.576C234.151 268.046 234.626 268.859 234.745 270.643L237.738 270.443ZM228.872 263.683H220.899V266.683H228.872V263.683ZM219.399 265.183V282H222.399V265.183H219.399ZM220.899 280.5H209.241V283.5H220.899V280.5ZM210.741 282V234.43H207.741V282H210.741ZM209.241 235.93H231.016V232.93H209.241V235.93ZM220.899 257.169H229.073V254.169H220.899V257.169ZM229.073 257.169C231.67 257.169 233.905 256.614 235.523 255.353C237.197 254.046 238.01 252.138 238.01 249.907H235.01C235.01 251.361 234.515 252.334 233.678 252.987C232.782 253.685 231.299 254.169 229.073 254.169V257.169ZM238.01 249.907C238.01 247.601 237.216 245.64 235.537 244.297C233.914 242.998 231.669 242.444 229.073 242.444V245.444C231.301 245.444 232.774 245.928 233.663 246.64C234.497 247.307 235.01 248.327 235.01 249.907H238.01ZM229.073 242.444H220.899V245.444H229.073V242.444ZM219.399 243.944V255.669H222.399V243.944H219.399ZM253.667 282L252.256 281.491L251.531 283.5H253.667V282ZM270.819 234.43V232.93H269.765L269.408 233.921L270.819 234.43ZM284.286 234.43L285.697 233.921L285.339 232.93H284.286V234.43ZM301.438 282V283.5H303.573L302.849 281.491L301.438 282ZM289.512 282L288.096 282.496L288.448 283.5H289.512V282ZM286.363 273.022L287.778 272.526L287.426 271.522H286.363V273.022ZM268.675 273.022V271.522H267.604L267.256 272.535L268.675 273.022ZM265.593 282V283.5H266.664L267.012 282.487L265.593 282ZM271.824 263.776L270.405 263.288L269.722 265.276H271.824V263.776ZM283.281 263.776V265.276H285.375L284.701 263.293L283.281 263.776ZM277.586 247.026L279.006 246.543L277.594 242.391L276.167 246.538L277.586 247.026ZM255.078 282.509L272.23 234.939L269.408 233.921L252.256 281.491L255.078 282.509ZM270.819 235.93H284.286V232.93H270.819V235.93ZM282.875 234.939L300.027 282.509L302.849 281.491L285.697 233.921L282.875 234.939ZM301.438 280.5H289.512V283.5H301.438V280.5ZM290.927 281.504L287.778 272.526L284.947 273.518L288.096 282.496L290.927 281.504ZM286.363 271.522H268.675V274.522H286.363V271.522ZM267.256 272.535L264.174 281.513L267.012 282.487L270.094 273.509L267.256 272.535ZM265.593 280.5H253.667V283.5H265.593V280.5ZM271.824 265.276H283.281V262.276H271.824V265.276ZM284.701 263.293L279.006 246.543L276.166 247.509L281.861 264.259L284.701 263.293ZM276.167 246.538L270.405 263.288L273.242 264.264L279.004 247.514L276.167 246.538ZM317.56 282L318.926 282.619L319.06 282.324V282H317.56ZM312.736 292.653V294.153H313.703L314.102 293.272L312.736 292.653ZM306.572 292.653L305.133 292.228L304.564 294.153H306.572V292.653ZM309.721 282L311.159 282.425L311.728 280.5H309.721V282ZM305.634 282H304.134V283.5H305.634V282ZM305.634 271.213V269.713H304.134V271.213H305.634ZM317.56 271.213H319.06V269.713H317.56V271.213ZM316.193 281.381L311.369 292.034L314.102 293.272L318.926 282.619L316.193 281.381ZM312.736 291.153H306.572V294.153H312.736V291.153ZM308.01 293.078L311.159 282.425L308.282 281.575L305.133 292.228L308.01 293.078ZM309.721 280.5H305.634V283.5H309.721V280.5ZM307.134 282V271.213H304.134V282H307.134ZM305.634 272.713H317.56V269.713H305.634V272.713ZM316.06 271.213V282H319.06V271.213H316.06ZM339.315 234.43V232.93H337.815V234.43H339.315ZM350.973 234.43H352.473V232.93H350.973V234.43ZM350.973 282V283.5H352.473V282H350.973ZM339.315 282H337.815V283.5H339.315V282ZM339.315 235.93H350.973V232.93H339.315V235.93ZM349.473 234.43V282H352.473V234.43H349.473ZM350.973 280.5H339.315V283.5H350.973V280.5ZM340.815 282V234.43H337.815V282H340.815ZM369.972 245.217L371.338 245.836L371.472 245.541V245.217H369.972ZM365.148 255.87V257.37H366.115L366.514 256.489L365.148 255.87ZM358.984 255.87L357.546 255.445L356.976 257.37H358.984V255.87ZM362.133 245.217L363.571 245.642L364.141 243.717H362.133V245.217ZM358.046 245.217H356.546V246.717H358.046V245.217ZM358.046 234.43V232.93H356.546V234.43H358.046ZM369.972 234.43H371.472V232.93H369.972V234.43ZM368.606 244.598L363.782 255.251L366.514 256.489L371.338 245.836L368.606 244.598ZM365.148 254.37H358.984V257.37H365.148V254.37ZM360.422 256.295L363.571 245.642L360.695 244.792L357.546 255.445L360.422 256.295ZM362.133 243.717H358.046V246.717H362.133V243.717ZM359.546 245.217V234.43H356.546V245.217H359.546ZM358.046 235.93H369.972V232.93H358.046V235.93ZM368.472 234.43V245.217H371.472V234.43H368.472ZM377.068 234.43V232.93H375.568V234.43H377.068ZM392.478 234.43L393.897 233.943L393.549 232.93H392.478V234.43ZM403.6 266.858L402.181 267.345L403.613 271.519L405.021 267.337L403.6 266.858ZM414.521 234.43V232.93H413.443L413.099 233.951L414.521 234.43ZM430.065 234.43H431.565V232.93H430.065V234.43ZM430.065 282V283.5H431.565V282H430.065ZM418.407 282H416.907V283.5H418.407V282ZM418.407 252.587H419.907L416.993 252.086L418.407 252.587ZM408.022 281.866V283.366H409.081L409.435 282.367L408.022 281.866ZM399.044 281.866L397.629 282.365L397.982 283.366H399.044V281.866ZM388.726 252.587L390.14 252.088L387.226 252.587H388.726ZM388.726 282V283.5H390.226V282H388.726ZM377.068 282H375.568V283.5H377.068V282ZM377.068 235.93H392.478V232.93H377.068V235.93ZM391.059 234.917L402.181 267.345L405.019 266.371L393.897 233.943L391.059 234.917ZM405.021 267.337L415.942 234.909L413.099 233.951L402.178 266.379L405.021 267.337ZM414.521 235.93H430.065V232.93H414.521V235.93ZM428.565 234.43V282H431.565V234.43H428.565ZM430.065 280.5H418.407V283.5H430.065V280.5ZM419.907 282V252.587H416.907V282H419.907ZM416.993 252.086L406.608 281.365L409.435 282.367L419.82 253.088L416.993 252.086ZM408.022 280.366H399.044V283.366H408.022V280.366ZM400.458 281.367L390.14 252.088L387.311 253.086L397.629 282.365L400.458 281.367ZM387.226 252.587V282H390.226V252.587H387.226ZM388.726 280.5H377.068V283.5H388.726V280.5ZM378.568 282V234.43H375.568V282H378.568ZM453.948 282H452.448V283.5H453.948V282ZM453.948 234.43V232.93H452.448V234.43H453.948ZM465.606 234.43H467.106V232.93H465.606V234.43ZM465.606 272.486H464.106V273.986H465.606V272.486ZM486.912 272.486H488.412V270.986H486.912V272.486ZM486.912 282V283.5H488.412V282H486.912ZM455.448 282V234.43H452.448V282H455.448ZM453.948 235.93H465.606V232.93H453.948V235.93ZM464.106 234.43V272.486H467.106V234.43H464.106ZM465.606 273.986H486.912V270.986H465.606V273.986ZM485.412 272.486V282H488.412V272.486H485.412ZM486.912 280.5H453.948V283.5H486.912V280.5ZM492.593 234.363V232.863H491.093V234.363H492.593ZM504.251 234.363H505.751V232.863H504.251V234.363ZM521.202 234.363V232.863H519.702V234.363H521.202ZM532.927 234.363H534.427V232.863H532.927V234.363ZM531.427 264.647C531.427 269.914 529.619 274.097 526.478 276.974C523.323 279.865 518.673 281.572 512.76 281.572V284.572C519.242 284.572 524.675 282.695 528.505 279.187C532.349 275.665 534.427 270.636 534.427 264.647H531.427ZM512.76 281.572C506.847 281.572 502.197 279.865 499.042 276.974C495.901 274.097 494.093 269.914 494.093 264.647H491.093C491.093 270.636 493.171 275.665 497.015 279.187C500.845 282.695 506.278 284.572 512.76 284.572V281.572ZM494.093 264.647V234.363H491.093V264.647H494.093ZM492.593 235.863H504.251V232.863H492.593V235.863ZM502.751 234.363V264.647H505.751V234.363H502.751ZM502.751 264.647C502.751 267.86 503.631 270.514 505.451 272.365C507.274 274.219 509.833 275.058 512.76 275.058V272.058C510.394 272.058 508.699 271.389 507.59 270.262C506.479 269.132 505.751 267.33 505.751 264.647H502.751ZM512.76 275.058C515.717 275.058 518.267 274.221 520.07 272.356C521.865 270.498 522.702 267.843 522.702 264.647H519.702C519.702 267.347 518.998 269.147 517.912 270.271C516.834 271.387 515.163 272.058 512.76 272.058V275.058ZM522.702 264.647V234.363H519.702V264.647H522.702ZM521.202 235.863H532.927V232.863H521.202V235.863ZM531.427 234.363V264.647H534.427V234.363H531.427ZM541.035 234.43V232.93H539.535V234.43H541.035ZM552.693 234.43H554.193V232.93H552.693V234.43ZM552.693 254.195H551.193V258.457L553.862 255.134L552.693 254.195ZM568.572 234.43V232.93H567.852L567.402 233.491L568.572 234.43ZM581.971 234.43L583.137 235.374L585.116 232.93H581.971V234.43ZM564.887 255.535L563.721 254.591L563.018 255.459L563.648 256.381L564.887 255.535ZM582.977 282V283.5H585.819L584.215 281.154L582.977 282ZM569.911 282L568.668 282.839L569.114 283.5H569.911V282ZM557.249 263.24L558.492 262.401L557.379 260.752L556.1 262.276L557.249 263.24ZM552.693 268.667L551.544 267.703L551.193 268.121V268.667H552.693ZM552.693 282V283.5H554.193V282H552.693ZM541.035 282H539.535V283.5H541.035V282ZM541.035 235.93H552.693V232.93H541.035V235.93ZM551.193 234.43V254.195H554.193V234.43H551.193ZM553.862 255.134L569.741 235.369L567.402 233.491L551.523 253.256L553.862 255.134ZM568.572 235.93H581.971V232.93H568.572V235.93ZM580.806 233.486L563.721 254.591L566.052 256.479L583.137 235.374L580.806 233.486ZM563.648 256.381L581.738 282.846L584.215 281.154L566.125 254.689L563.648 256.381ZM582.977 280.5H569.911V283.5H582.977V280.5ZM571.155 281.161L558.492 262.401L556.005 264.079L568.668 282.839L571.155 281.161ZM556.1 262.276L551.544 267.703L553.841 269.631L558.397 264.204L556.1 262.276ZM551.193 268.667V282H554.193V268.667H551.193ZM552.693 280.5H541.035V283.5H552.693V280.5ZM542.535 282V234.43H539.535V282H542.535ZM588.34 234.43V232.93H586.84V234.43H588.34ZM622.51 234.43H624.01V232.93H622.51V234.43ZM622.51 243.944V245.444H624.01V243.944H622.51ZM599.998 243.944V242.444H598.498V243.944H599.998ZM599.998 253.391H598.498V254.891H599.998V253.391ZM621.706 253.391H623.206V251.891H621.706V253.391ZM621.706 262.905V264.405H623.206V262.905H621.706ZM599.998 262.905V261.405H598.498V262.905H599.998ZM599.998 272.486H598.498V273.986H599.998V272.486ZM623.046 272.486H624.546V270.986H623.046V272.486ZM623.046 282V283.5H624.546V282H623.046ZM588.34 282H586.84V283.5H588.34V282ZM588.34 235.93H622.51V232.93H588.34V235.93ZM621.01 234.43V243.944H624.01V234.43H621.01ZM622.51 242.444H599.998V245.444H622.51V242.444ZM598.498 243.944V253.391H601.498V243.944H598.498ZM599.998 254.891H621.706V251.891H599.998V254.891ZM620.206 253.391V262.905H623.206V253.391H620.206ZM621.706 261.405H599.998V264.405H621.706V261.405ZM598.498 262.905V272.486H601.498V262.905H598.498ZM599.998 273.986H623.046V270.986H599.998V273.986ZM621.546 272.486V282H624.546V272.486H621.546ZM623.046 280.5H588.34V283.5H623.046V280.5ZM589.84 282V234.43H586.84V282H589.84Z" fill="#262626"/>
<mask id="path-4-outside-2_584_216" maskUnits="userSpaceOnUse" x="21" y="312" width="604" height="62" fill="black">
<rect fill="white" x="21" y="312" width="604" height="62"/>
<path d="M22.7005 314.43H34.3585V334.195L50.2375 314.43H63.6375L46.5525 335.535L64.6425 362H51.5775L38.9145 343.24L34.3585 348.667V362H22.7005V314.43ZM71.1185 314.43H82.7765V362H71.1185V314.43ZM89.0457 362L106.198 314.43H119.665L136.817 362H124.891L121.742 353.022H104.054L100.972 362H89.0457ZM107.203 343.776H118.66L112.965 327.026L107.203 343.776ZM179.585 363.072C164.778 363.072 155.934 353.558 155.934 338.282C155.934 322.872 164.778 313.358 179.585 313.358C194.325 313.358 203.169 322.872 203.169 338.282C203.169 353.558 194.325 363.072 179.585 363.072ZM167.994 338.282C167.994 347.863 172.215 353.558 179.585 353.558C186.955 353.558 191.176 347.863 191.176 338.282C191.176 328.567 186.955 322.872 179.585 322.872C172.215 322.872 167.994 328.567 167.994 338.282ZM231.016 314.43C240.798 314.43 248.436 319.388 248.436 328.701C248.436 334.865 245.086 338.818 239.592 340.292C244.818 340.828 247.297 343.24 247.699 348.466L248.838 362H237.113L236.242 350.543C235.974 346.523 233.964 345.183 228.872 345.183H220.899V362H209.241V314.43H231.016ZM220.899 335.669H229.073C233.897 335.669 236.51 333.592 236.51 329.907C236.51 326.021 233.897 323.944 229.073 323.944H220.899V335.669ZM253.667 362L270.819 314.43H284.286L301.438 362H289.512L286.363 353.022H268.675L265.593 362H253.667ZM271.824 343.776H283.281L277.586 327.026L271.824 343.776ZM317.56 362L312.736 372.653H306.572L309.721 362H305.634V351.213H317.56V362ZM339.315 314.43H350.973V362H339.315V314.43ZM369.972 325.217L365.148 335.87H358.984L362.133 325.217H358.046V314.43H369.972V325.217ZM377.068 314.43H392.478L403.6 346.858L414.521 314.43H430.065V362H418.407V332.587L408.022 361.866H399.044L388.726 332.587V362H377.068V314.43ZM453.948 362V314.43H465.606V352.486H486.912V362H453.948ZM532.927 344.647C532.927 355.903 525.155 363.072 512.76 363.072C500.365 363.072 492.593 355.903 492.593 344.647V314.363H504.251V344.647C504.251 350.543 507.467 353.558 512.76 353.558C518.12 353.558 521.202 350.543 521.202 344.647V314.363H532.927V344.647ZM541.035 314.43H552.693V334.195L568.572 314.43H581.972L564.887 335.535L582.977 362H569.912L557.249 343.24L552.693 348.667V362H541.035V314.43ZM588.34 314.43H622.51V323.944H599.998V333.391H621.706V342.905H599.998V352.486H623.046V362H588.34V314.43Z"/>
</mask>
<path d="M22.7005 314.43H34.3585V334.195L50.2375 314.43H63.6375L46.5525 335.535L64.6425 362H51.5775L38.9145 343.24L34.3585 348.667V362H22.7005V314.43ZM71.1185 314.43H82.7765V362H71.1185V314.43ZM89.0457 362L106.198 314.43H119.665L136.817 362H124.891L121.742 353.022H104.054L100.972 362H89.0457ZM107.203 343.776H118.66L112.965 327.026L107.203 343.776ZM179.585 363.072C164.778 363.072 155.934 353.558 155.934 338.282C155.934 322.872 164.778 313.358 179.585 313.358C194.325 313.358 203.169 322.872 203.169 338.282C203.169 353.558 194.325 363.072 179.585 363.072ZM167.994 338.282C167.994 347.863 172.215 353.558 179.585 353.558C186.955 353.558 191.176 347.863 191.176 338.282C191.176 328.567 186.955 322.872 179.585 322.872C172.215 322.872 167.994 328.567 167.994 338.282ZM231.016 314.43C240.798 314.43 248.436 319.388 248.436 328.701C248.436 334.865 245.086 338.818 239.592 340.292C244.818 340.828 247.297 343.24 247.699 348.466L248.838 362H237.113L236.242 350.543C235.974 346.523 233.964 345.183 228.872 345.183H220.899V362H209.241V314.43H231.016ZM220.899 335.669H229.073C233.897 335.669 236.51 333.592 236.51 329.907C236.51 326.021 233.897 323.944 229.073 323.944H220.899V335.669ZM253.667 362L270.819 314.43H284.286L301.438 362H289.512L286.363 353.022H268.675L265.593 362H253.667ZM271.824 343.776H283.281L277.586 327.026L271.824 343.776ZM317.56 362L312.736 372.653H306.572L309.721 362H305.634V351.213H317.56V362ZM339.315 314.43H350.973V362H339.315V314.43ZM369.972 325.217L365.148 335.87H358.984L362.133 325.217H358.046V314.43H369.972V325.217ZM377.068 314.43H392.478L403.6 346.858L414.521 314.43H430.065V362H418.407V332.587L408.022 361.866H399.044L388.726 332.587V362H377.068V314.43ZM453.948 362V314.43H465.606V352.486H486.912V362H453.948ZM532.927 344.647C532.927 355.903 525.155 363.072 512.76 363.072C500.365 363.072 492.593 355.903 492.593 344.647V314.363H504.251V344.647C504.251 350.543 507.467 353.558 512.76 353.558C518.12 353.558 521.202 350.543 521.202 344.647V314.363H532.927V344.647ZM541.035 314.43H552.693V334.195L568.572 314.43H581.972L564.887 335.535L582.977 362H569.912L557.249 343.24L552.693 348.667V362H541.035V314.43ZM588.34 314.43H622.51V323.944H599.998V333.391H621.706V342.905H599.998V352.486H623.046V362H588.34V314.43Z" fill="#262626"/>
<path d="M22.7005 314.43V313.43H21.7005V314.43H22.7005ZM34.3585 314.43H35.3585V313.43H34.3585V314.43ZM34.3585 334.195H33.3585V337.036L35.1381 334.821L34.3585 334.195ZM50.2375 314.43V313.43H49.7582L49.458 313.804L50.2375 314.43ZM63.6375 314.43L64.4148 315.059L65.7337 313.43H63.6375V314.43ZM46.5525 335.535L45.7753 334.906L45.3068 335.485L45.727 336.099L46.5525 335.535ZM64.6425 362V363H66.5374L65.4681 361.436L64.6425 362ZM51.5775 362L50.7487 362.559L51.046 363H51.5775V362ZM38.9145 343.24L39.7434 342.681L39.0014 341.581L38.1486 342.597L38.9145 343.24ZM34.3585 348.667L33.5926 348.024L33.3585 348.303V348.667H34.3585ZM34.3585 362V363H35.3585V362H34.3585ZM22.7005 362H21.7005V363H22.7005V362ZM22.7005 315.43H34.3585V313.43H22.7005V315.43ZM33.3585 314.43V334.195H35.3585V314.43H33.3585ZM35.1381 334.821L51.0171 315.056L49.458 313.804L33.579 333.569L35.1381 334.821ZM50.2375 315.43H63.6375V313.43H50.2375V315.43ZM62.8603 313.801L45.7753 334.906L47.3298 336.164L64.4148 315.059L62.8603 313.801ZM45.727 336.099L63.817 362.564L65.4681 361.436L47.3781 334.971L45.727 336.099ZM64.6425 361H51.5775V363H64.6425V361ZM52.4064 361.441L39.7434 342.681L38.0857 343.799L50.7487 362.559L52.4064 361.441ZM38.1486 342.597L33.5926 348.024L35.1244 349.31L39.6804 343.883L38.1486 342.597ZM33.3585 348.667V362H35.3585V348.667H33.3585ZM34.3585 361H22.7005V363H34.3585V361ZM23.7005 362V314.43H21.7005V362H23.7005ZM71.1185 314.43V313.43H70.1185V314.43H71.1185ZM82.7765 314.43H83.7765V313.43H82.7765V314.43ZM82.7765 362V363H83.7765V362H82.7765ZM71.1185 362H70.1185V363H71.1185V362ZM71.1185 315.43H82.7765V313.43H71.1185V315.43ZM81.7765 314.43V362H83.7765V314.43H81.7765ZM82.7765 361H71.1185V363H82.7765V361ZM72.1185 362V314.43H70.1185V362H72.1185ZM89.0457 362L88.105 361.661L87.6221 363H89.0457V362ZM106.198 314.43V313.43H105.495L105.257 314.091L106.198 314.43ZM119.665 314.43L120.605 314.091L120.367 313.43H119.665V314.43ZM136.817 362V363H138.24L137.757 361.661L136.817 362ZM124.891 362L123.947 362.331L124.182 363H124.891V362ZM121.742 353.022L122.685 352.691L122.451 352.022H121.742V353.022ZM104.054 353.022V352.022H103.34L103.108 352.697L104.054 353.022ZM100.972 362V363H101.686L101.918 362.325L100.972 362ZM107.203 343.776L106.257 343.451L105.801 344.776H107.203V343.776ZM118.66 343.776V344.776H120.056L119.606 343.454L118.66 343.776ZM112.965 327.026L113.911 326.704L112.97 323.936L112.019 326.701L112.965 327.026ZM89.9864 362.339L107.138 314.769L105.257 314.091L88.105 361.661L89.9864 362.339ZM106.198 315.43H119.665V313.43H106.198V315.43ZM118.724 314.769L135.876 362.339L137.757 361.661L120.605 314.091L118.724 314.769ZM136.817 361H124.891V363H136.817V361ZM125.834 361.669L122.685 352.691L120.798 353.353L123.947 362.331L125.834 361.669ZM121.742 352.022H104.054V354.022H121.742V352.022ZM103.108 352.697L100.026 361.675L101.918 362.325L105 353.347L103.108 352.697ZM100.972 361H89.0457V363H100.972V361ZM107.203 344.776H118.66V342.776H107.203V344.776ZM119.606 343.454L113.911 326.704L112.018 327.348L117.713 344.098L119.606 343.454ZM112.019 326.701L106.257 343.451L108.148 344.101L113.91 327.351L112.019 326.701ZM179.585 362.072C172.402 362.072 166.771 359.77 162.933 355.718C159.087 351.658 156.934 345.73 156.934 338.282H154.934C154.934 346.11 157.202 352.577 161.481 357.093C165.766 361.617 171.961 364.072 179.585 364.072V362.072ZM156.934 338.282C156.934 330.765 159.088 324.803 162.934 320.728C166.772 316.66 172.402 314.358 179.585 314.358V312.358C171.961 312.358 165.765 314.813 161.479 319.355C157.201 323.889 154.934 330.389 154.934 338.282H156.934ZM179.585 314.358C186.733 314.358 192.346 316.659 196.176 320.727C200.014 324.802 202.169 330.765 202.169 338.282H204.169C204.169 330.389 201.902 323.89 197.632 319.356C193.356 314.814 187.177 312.358 179.585 312.358V314.358ZM202.169 338.282C202.169 345.73 200.015 351.659 196.178 355.719C192.347 359.771 186.733 362.072 179.585 362.072V364.072C187.176 364.072 193.355 361.616 197.631 357.092C201.9 352.576 204.169 346.11 204.169 338.282H202.169ZM166.994 338.282C166.994 343.201 168.075 347.261 170.227 350.115C172.407 353.007 175.612 354.558 179.585 354.558V352.558C176.188 352.558 173.596 351.262 171.824 348.911C170.023 346.522 168.994 342.944 168.994 338.282H166.994ZM179.585 354.558C183.558 354.558 186.762 353.007 188.942 350.115C191.094 347.261 192.176 343.201 192.176 338.282H190.176C190.176 342.944 189.146 346.522 187.345 348.911C185.573 351.262 182.982 352.558 179.585 352.558V354.558ZM192.176 338.282C192.176 333.298 191.096 329.206 188.944 326.334C186.764 323.424 183.558 321.872 179.585 321.872V323.872C182.981 323.872 185.571 325.168 187.344 327.533C189.145 329.938 190.176 333.551 190.176 338.282H192.176ZM179.585 321.872C175.611 321.872 172.406 323.424 170.225 326.334C168.074 329.206 166.994 333.298 166.994 338.282H168.994C168.994 333.551 170.024 329.938 171.826 327.533C173.598 325.168 176.188 323.872 179.585 323.872V321.872ZM239.592 340.292L239.332 339.326L239.49 341.287L239.592 340.292ZM247.699 348.466L246.701 348.543L246.702 348.55L247.699 348.466ZM248.838 362V363H249.925L249.834 361.916L248.838 362ZM237.113 362L236.115 362.076L236.186 363H237.113V362ZM236.242 350.543L235.244 350.61L235.244 350.619L236.242 350.543ZM220.899 345.183V344.183H219.899V345.183H220.899ZM220.899 362V363H221.899V362H220.899ZM209.241 362H208.241V363H209.241V362ZM209.241 314.43V313.43H208.241V314.43H209.241ZM220.899 335.669H219.899V336.669H220.899V335.669ZM220.899 323.944V322.944H219.899V323.944H220.899ZM231.016 315.43C235.751 315.43 239.873 316.632 242.785 318.866C245.667 321.078 247.436 324.351 247.436 328.701H249.436C249.436 323.738 247.385 319.875 244.003 317.28C240.65 314.707 236.062 313.43 231.016 313.43V315.43ZM247.436 328.701C247.436 331.596 246.652 333.898 245.287 335.638C243.92 337.381 241.911 338.634 239.332 339.326L239.851 341.258C242.766 340.476 245.179 339.016 246.861 336.872C248.544 334.726 249.436 331.97 249.436 328.701H247.436ZM239.49 341.287C241.98 341.542 243.649 342.229 244.747 343.327C245.841 344.421 246.511 346.066 246.702 348.543L248.696 348.389C248.484 345.64 247.714 343.466 246.161 341.913C244.613 340.365 242.429 339.578 239.694 339.297L239.49 341.287ZM246.702 348.55L247.841 362.084L249.834 361.916L248.695 348.382L246.702 348.55ZM248.838 361H237.113V363H248.838V361ZM238.11 361.924L237.239 350.467L235.244 350.619L236.115 362.076L238.11 361.924ZM237.239 350.476C237.095 348.316 236.463 346.624 234.947 345.542C233.504 344.511 231.454 344.183 228.872 344.183V346.183C231.381 346.183 232.882 346.525 233.784 347.169C234.614 347.762 235.12 348.75 235.244 350.61L237.239 350.476ZM228.872 344.183H220.899V346.183H228.872V344.183ZM219.899 345.183V362H221.899V345.183H219.899ZM220.899 361H209.241V363H220.899V361ZM210.241 362V314.43H208.241V362H210.241ZM209.241 315.43H231.016V313.43H209.241V315.43ZM220.899 336.669H229.073V334.669H220.899V336.669ZM229.073 336.669C231.608 336.669 233.718 336.126 235.215 334.958C236.75 333.761 237.51 332.009 237.51 329.907H235.51C235.51 331.49 234.962 332.619 233.985 333.381C232.969 334.174 231.361 334.669 229.073 334.669V336.669ZM237.51 329.907C237.51 327.722 236.763 325.918 235.225 324.687C233.724 323.487 231.607 322.944 229.073 322.944V324.944C231.362 324.944 232.964 325.44 233.975 326.249C234.95 327.029 235.51 328.206 235.51 329.907H237.51ZM229.073 322.944H220.899V324.944H229.073V322.944ZM219.899 323.944V335.669H221.899V323.944H219.899ZM253.667 362L252.726 361.661L252.243 363H253.667V362ZM270.819 314.43V313.43H270.116L269.878 314.091L270.819 314.43ZM284.286 314.43L285.227 314.091L284.988 313.43H284.286V314.43ZM301.438 362V363H302.861L302.379 361.661L301.438 362ZM289.512 362L288.568 362.331L288.803 363H289.512V362ZM286.363 353.022L287.306 352.691L287.072 352.022H286.363V353.022ZM268.675 353.022V352.022H267.961L267.729 352.697L268.675 353.022ZM265.593 362V363H266.307L266.539 362.325L265.593 362ZM271.824 343.776L270.878 343.451L270.422 344.776H271.824V343.776ZM283.281 343.776V344.776H284.677L284.228 343.454L283.281 343.776ZM277.586 327.026L278.533 326.704L277.591 323.936L276.64 326.701L277.586 327.026ZM254.608 362.339L271.76 314.769L269.878 314.091L252.726 361.661L254.608 362.339ZM270.819 315.43H284.286V313.43H270.819V315.43ZM283.345 314.769L300.497 362.339L302.379 361.661L285.227 314.091L283.345 314.769ZM301.438 361H289.512V363H301.438V361ZM290.455 361.669L287.306 352.691L285.419 353.353L288.568 362.331L290.455 361.669ZM286.363 352.022H268.675V354.022H286.363V352.022ZM267.729 352.697L264.647 361.675L266.539 362.325L269.621 353.347L267.729 352.697ZM265.593 361H253.667V363H265.593V361ZM271.824 344.776H283.281V342.776H271.824V344.776ZM284.228 343.454L278.533 326.704L276.639 327.348L282.334 344.098L284.228 343.454ZM276.64 326.701L270.878 343.451L272.769 344.101L278.531 327.351L276.64 326.701ZM317.56 362L318.471 362.413L318.56 362.216V362H317.56ZM312.736 372.653V373.653H313.381L313.647 373.066L312.736 372.653ZM306.572 372.653L305.613 372.37L305.233 373.653H306.572V372.653ZM309.721 362L310.68 362.283L311.059 361H309.721V362ZM305.634 362H304.634V363H305.634V362ZM305.634 351.213V350.213H304.634V351.213H305.634ZM317.56 351.213H318.56V350.213H317.56V351.213ZM316.649 361.587L311.825 372.24L313.647 373.066L318.471 362.413L316.649 361.587ZM312.736 371.653H306.572V373.653H312.736V371.653ZM307.531 372.936L310.68 362.283L308.762 361.717L305.613 372.37L307.531 372.936ZM309.721 361H305.634V363H309.721V361ZM306.634 362V351.213H304.634V362H306.634ZM305.634 352.213H317.56V350.213H305.634V352.213ZM316.56 351.213V362H318.56V351.213H316.56ZM339.315 314.43V313.43H338.315V314.43H339.315ZM350.973 314.43H351.973V313.43H350.973V314.43ZM350.973 362V363H351.973V362H350.973ZM339.315 362H338.315V363H339.315V362ZM339.315 315.43H350.973V313.43H339.315V315.43ZM349.973 314.43V362H351.973V314.43H349.973ZM350.973 361H339.315V363H350.973V361ZM340.315 362V314.43H338.315V362H340.315ZM369.972 325.217L370.883 325.63L370.972 325.433V325.217H369.972ZM365.148 335.87V336.87H365.793L366.059 336.283L365.148 335.87ZM358.984 335.87L358.025 335.587L357.646 336.87H358.984V335.87ZM362.133 325.217L363.092 325.5L363.471 324.217H362.133V325.217ZM358.046 325.217H357.046V326.217H358.046V325.217ZM358.046 314.43V313.43H357.046V314.43H358.046ZM369.972 314.43H370.972V313.43H369.972V314.43ZM369.061 324.804L364.237 335.457L366.059 336.283L370.883 325.63L369.061 324.804ZM365.148 334.87H358.984V336.87H365.148V334.87ZM359.943 336.153L363.092 325.5L361.174 324.934L358.025 335.587L359.943 336.153ZM362.133 324.217H358.046V326.217H362.133V324.217ZM359.046 325.217V314.43H357.046V325.217H359.046ZM358.046 315.43H369.972V313.43H358.046V315.43ZM368.972 314.43V325.217H370.972V314.43H368.972ZM377.068 314.43V313.43H376.068V314.43H377.068ZM392.478 314.43L393.424 314.106L393.192 313.43H392.478V314.43ZM403.6 346.858L402.654 347.182L403.608 349.966L404.547 347.177L403.6 346.858ZM414.521 314.43V313.43H413.802L413.573 314.111L414.521 314.43ZM430.065 314.43H431.065V313.43H430.065V314.43ZM430.065 362V363H431.065V362H430.065ZM418.407 362H417.407V363H418.407V362ZM418.407 332.587H419.407L417.464 332.253L418.407 332.587ZM408.022 361.866V362.866H408.728L408.964 362.2L408.022 361.866ZM399.044 361.866L398.101 362.198L398.336 362.866H399.044V361.866ZM388.726 332.587L389.669 332.255L387.726 332.587H388.726ZM388.726 362V363H389.726V362H388.726ZM377.068 362H376.068V363H377.068V362ZM377.068 315.43H392.478V313.43H377.068V315.43ZM391.532 314.754L402.654 347.182L404.546 346.534L393.424 314.106L391.532 314.754ZM404.547 347.177L415.468 314.749L413.573 314.111L402.652 346.539L404.547 347.177ZM414.521 315.43H430.065V313.43H414.521V315.43ZM429.065 314.43V362H431.065V314.43H429.065ZM430.065 361H418.407V363H430.065V361ZM419.407 362V332.587H417.407V362H419.407ZM417.464 332.253L407.079 361.532L408.964 362.2L419.349 332.921L417.464 332.253ZM408.022 360.866H399.044V362.866H408.022V360.866ZM399.987 361.534L389.669 332.255L387.783 332.919L398.101 362.198L399.987 361.534ZM387.726 332.587V362H389.726V332.587H387.726ZM388.726 361H377.068V363H388.726V361ZM378.068 362V314.43H376.068V362H378.068ZM453.948 362H452.948V363H453.948V362ZM453.948 314.43V313.43H452.948V314.43H453.948ZM465.606 314.43H466.606V313.43H465.606V314.43ZM465.606 352.486H464.606V353.486H465.606V352.486ZM486.912 352.486H487.912V351.486H486.912V352.486ZM486.912 362V363H487.912V362H486.912ZM454.948 362V314.43H452.948V362H454.948ZM453.948 315.43H465.606V313.43H453.948V315.43ZM464.606 314.43V352.486H466.606V314.43H464.606ZM465.606 353.486H486.912V351.486H465.606V353.486ZM485.912 352.486V362H487.912V352.486H485.912ZM486.912 361H453.948V363H486.912V361ZM492.593 314.363V313.363H491.593V314.363H492.593ZM504.251 314.363H505.251V313.363H504.251V314.363ZM521.202 314.363V313.363H520.202V314.363H521.202ZM532.927 314.363H533.927V313.363H532.927V314.363ZM531.927 344.647C531.927 350.034 530.074 354.358 526.816 357.343C523.548 360.337 518.768 362.072 512.76 362.072V364.072C519.147 364.072 524.45 362.223 528.167 358.818C531.894 355.404 533.927 350.516 533.927 344.647H531.927ZM512.76 362.072C506.752 362.072 501.971 360.337 498.704 357.343C495.446 354.358 493.593 350.034 493.593 344.647H491.593C491.593 350.516 493.626 355.404 497.353 358.818C501.07 362.223 506.373 364.072 512.76 364.072V362.072ZM493.593 344.647V314.363H491.593V344.647H493.593ZM492.593 315.363H504.251V313.363H492.593V315.363ZM503.251 314.363V344.647H505.251V314.363H503.251ZM503.251 344.647C503.251 347.772 504.106 350.283 505.808 352.015C507.511 353.748 509.927 354.558 512.76 354.558V352.558C510.3 352.558 508.461 351.861 507.234 350.612C506.004 349.362 505.251 347.418 505.251 344.647H503.251ZM512.76 354.558C515.624 354.558 518.028 353.749 519.71 352.008C521.387 350.273 522.202 347.761 522.202 344.647H520.202C520.202 347.429 519.476 349.372 518.272 350.619C517.073 351.86 515.256 352.558 512.76 352.558V354.558ZM522.202 344.647V314.363H520.202V344.647H522.202ZM521.202 315.363H532.927V313.363H521.202V315.363ZM531.927 314.363V344.647H533.927V314.363H531.927ZM541.035 314.43V313.43H540.035V314.43H541.035ZM552.693 314.43H553.693V313.43H552.693V314.43ZM552.693 334.195H551.693V337.036L553.472 334.821L552.693 334.195ZM568.572 314.43V313.43H568.092L567.792 313.804L568.572 314.43ZM581.971 314.43L582.749 315.059L584.068 313.43H581.971V314.43ZM564.887 335.535L564.109 334.906L563.641 335.485L564.061 336.099L564.887 335.535ZM582.977 362V363H584.871L583.802 361.436L582.977 362ZM569.911 362L569.083 362.559L569.38 363H569.911V362ZM557.249 343.24L558.077 342.681L557.335 341.581L556.483 342.597L557.249 343.24ZM552.693 348.667L551.927 348.024L551.693 348.303V348.667H552.693ZM552.693 362V363H553.693V362H552.693ZM541.035 362H540.035V363H541.035V362ZM541.035 315.43H552.693V313.43H541.035V315.43ZM551.693 314.43V334.195H553.693V314.43H551.693ZM553.472 334.821L569.351 315.056L567.792 313.804L551.913 333.569L553.472 334.821ZM568.572 315.43H581.971V313.43H568.572V315.43ZM581.194 313.801L564.109 334.906L565.664 336.164L582.749 315.059L581.194 313.801ZM564.061 336.099L582.151 362.564L583.802 361.436L565.712 334.971L564.061 336.099ZM582.977 361H569.911V363H582.977V361ZM570.74 361.441L558.077 342.681L556.42 343.799L569.083 362.559L570.74 361.441ZM556.483 342.597L551.927 348.024L553.458 349.31L558.014 343.883L556.483 342.597ZM551.693 348.667V362H553.693V348.667H551.693ZM552.693 361H541.035V363H552.693V361ZM542.035 362V314.43H540.035V362H542.035ZM588.34 314.43V313.43H587.34V314.43H588.34ZM622.51 314.43H623.51V313.43H622.51V314.43ZM622.51 323.944V324.944H623.51V323.944H622.51ZM599.998 323.944V322.944H598.998V323.944H599.998ZM599.998 333.391H598.998V334.391H599.998V333.391ZM621.706 333.391H622.706V332.391H621.706V333.391ZM621.706 342.905V343.905H622.706V342.905H621.706ZM599.998 342.905V341.905H598.998V342.905H599.998ZM599.998 352.486H598.998V353.486H599.998V352.486ZM623.046 352.486H624.046V351.486H623.046V352.486ZM623.046 362V363H624.046V362H623.046ZM588.34 362H587.34V363H588.34V362ZM588.34 315.43H622.51V313.43H588.34V315.43ZM621.51 314.43V323.944H623.51V314.43H621.51ZM622.51 322.944H599.998V324.944H622.51V322.944ZM598.998 323.944V333.391H600.998V323.944H598.998ZM599.998 334.391H621.706V332.391H599.998V334.391ZM620.706 333.391V342.905H622.706V333.391H620.706ZM621.706 341.905H599.998V343.905H621.706V341.905ZM598.998 342.905V352.486H600.998V342.905H598.998ZM599.998 353.486H623.046V351.486H599.998V353.486ZM622.046 352.486V362H624.046V352.486H622.046ZM623.046 361H588.34V363H623.046V361ZM589.34 362V314.43H587.34V362H589.34Z" fill="#262626" mask="url(#path-4-outside-2_584_216)"/>
<rect x="62.5" y="0.5" width="519" height="519" stroke="#222121" stroke-opacity="0.3"/>
<line x1="62" y1="39.5" x2="582" y2="39.5" stroke="#222121" stroke-opacity="0.3"/>
<line x1="62" y1="199.5" x2="582" y2="199.5" stroke="#222121" stroke-opacity="0.3"/>
<line x1="62" y1="119.5" x2="582" y2="119.5" stroke="#222121" stroke-opacity="0.3"/>
<line x1="62" y1="279.5" x2="582" y2="279.5" stroke="#222121" stroke-opacity="0.3"/>
<line x1="62" y1="399.5" x2="582" y2="399.5" stroke="#222121" stroke-opacity="0.3"/>
<line x1="62" y1="79.5" x2="582" y2="79.5" stroke="#222121" stroke-opacity="0.3"/>
<line x1="62" y1="239.5" x2="582" y2="239.5" stroke="#222121" stroke-opacity="0.3"/>
<line x1="62" y1="359.5" x2="582" y2="359.5" stroke="#222121" stroke-opacity="0.3"/>
<line x1="62" y1="159.5" x2="582" y2="159.5" stroke="#222121" stroke-opacity="0.3"/>
<line x1="62" y1="319.5" x2="582" y2="319.5" stroke="#222121" stroke-opacity="0.3"/>
<line x1="62" y1="439.5" x2="582" y2="439.5" stroke="#222121" stroke-opacity="0.3"/>
<line x1="62" y1="479.5" x2="582" y2="479.5" stroke="#222121" stroke-opacity="0.3"/>
<line x1="101.5" y1="519" x2="101.5" stroke="#222121" stroke-opacity="0.3"/>
<line x1="261.5" y1="519" x2="261.5" stroke="#222121" stroke-opacity="0.3"/>
<line x1="181.5" y1="519" x2="181.5" stroke="#222121" stroke-opacity="0.3"/>
<line x1="341.5" y1="520" x2="341.5" y2="1" stroke="#222121" stroke-opacity="0.3"/>
<line x1="461.5" y1="520" x2="461.5" y2="1" stroke="#222121" stroke-opacity="0.3"/>
<line x1="141.5" y1="519" x2="141.5" stroke="#222121" stroke-opacity="0.3"/>
<line x1="301.5" y1="519" x2="301.5" y2="1" stroke="#222121" stroke-opacity="0.3"/>
<line x1="421.5" y1="520" x2="421.5" y2="1" stroke="#222121" stroke-opacity="0.3"/>
<line x1="221.5" y1="519" x2="221.5" stroke="#222121" stroke-opacity="0.3"/>
<line x1="381.5" y1="520" x2="381.5" y2="1" stroke="#222121" stroke-opacity="0.3"/>
<line x1="501.5" y1="520" x2="501.5" y2="1" stroke="#222121" stroke-opacity="0.3"/>
<line x1="541.5" y1="520" x2="541.5" stroke="#222121" stroke-opacity="0.3"/>
</svg>
