<svg width="602" height="60" viewBox="0 0 602 60" fill="none" xmlns="http://www.w3.org/2000/svg">
<path d="M0.700531 1.43V-0.0700026H-0.799469V1.43H0.700531ZM12.3585 1.43H13.8585V-0.0700026H12.3585V1.43ZM12.3585 21.195H10.8585V25.4571L13.5279 22.1345L12.3585 21.195ZM28.2375 1.43V-0.0700026H27.5185L27.0682 0.49054L28.2375 1.43ZM41.6375 1.43L42.8034 2.37379L44.7817 -0.0700026H41.6375V1.43ZM24.5525 22.535L23.3867 21.5912L22.6839 22.4593L23.3142 23.3815L24.5525 22.535ZM42.6425 49V50.5H45.4848L43.8809 48.1535L42.6425 49ZM29.5775 49L28.3343 49.8392L28.7803 50.5H29.5775V49ZM16.9145 30.24L18.1578 29.4008L17.0448 27.7519L15.7657 29.2755L16.9145 30.24ZM12.3585 35.667L11.2097 34.7025L10.8585 35.1208V35.667H12.3585ZM12.3585 49V50.5H13.8585V49H12.3585ZM0.700531 49H-0.799469V50.5H0.700531V49ZM0.700531 2.93H12.3585V-0.0700026H0.700531V2.93ZM10.8585 1.43V21.195H13.8585V1.43H10.8585ZM13.5279 22.1345L29.4069 2.36946L27.0682 0.49054L11.1892 20.2555L13.5279 22.1345ZM28.2375 2.93H41.6375V-0.0700026H28.2375V2.93ZM40.4717 0.4862L23.3867 21.5912L25.7184 23.4788L42.8034 2.37379L40.4717 0.4862ZM23.3142 23.3815L41.4042 49.8465L43.8809 48.1535L25.7909 21.6885L23.3142 23.3815ZM42.6425 47.5H29.5775V50.5H42.6425V47.5ZM30.8208 48.1608L18.1578 29.4008L15.6713 31.0792L28.3343 49.8392L30.8208 48.1608ZM15.7657 29.2755L11.2097 34.7025L13.5074 36.6315L18.0634 31.2045L15.7657 29.2755ZM10.8585 35.667V49H13.8585V35.667H10.8585ZM12.3585 47.5H0.700531V50.5H12.3585V47.5ZM2.20053 49V1.43H-0.799469V49H2.20053ZM49.1185 1.43V-0.0700026H47.6185V1.43H49.1185ZM60.7765 1.43H62.2765V-0.0700026H60.7765V1.43ZM60.7765 49V50.5H62.2765V49H60.7765ZM49.1185 49H47.6185V50.5H49.1185V49ZM49.1185 2.93H60.7765V-0.0700026H49.1185V2.93ZM59.2765 1.43V49H62.2765V1.43H59.2765ZM60.7765 47.5H49.1185V50.5H60.7765V47.5ZM50.6185 49V1.43H47.6185V49H50.6185ZM67.0457 49L65.6346 48.4912L64.9103 50.5H67.0457V49ZM84.1977 1.43V-0.0700026H83.144L82.7866 0.921214L84.1977 1.43ZM97.6647 1.43L99.0758 0.921214L98.7184 -0.0700026H97.6647V1.43ZM114.817 49V50.5H116.952L116.228 48.4912L114.817 49ZM102.891 49L101.475 49.4965L101.827 50.5H102.891V49ZM99.7417 40.022L101.157 39.5255L100.805 38.522H99.7417V40.022ZM82.0537 40.022V38.522H80.9827L80.635 39.535L82.0537 40.022ZM78.9717 49V50.5H80.0427L80.3904 49.487L78.9717 49ZM85.2027 30.776L83.7843 30.2881L83.1004 32.276H85.2027V30.776ZM96.6597 30.776V32.276H98.754L98.0799 30.2931L96.6597 30.776ZM90.9647 14.026L92.3849 13.5431L90.973 9.39062L89.5463 13.5381L90.9647 14.026ZM68.4568 49.5088L85.6088 1.93878L82.7866 0.921214L65.6346 48.4912L68.4568 49.5088ZM84.1977 2.93H97.6647V-0.0700026H84.1977V2.93ZM96.2536 1.93878L113.406 49.5088L116.228 48.4912L99.0758 0.921214L96.2536 1.93878ZM114.817 47.5H102.891V50.5H114.817V47.5ZM104.306 48.5035L101.157 39.5255L98.3263 40.5185L101.475 49.4965L104.306 48.5035ZM99.7417 38.522H82.0537V41.522H99.7417V38.522ZM80.635 39.535L77.553 48.513L80.3904 49.487L83.4724 40.509L80.635 39.535ZM78.9717 47.5H67.0457V50.5H78.9717V47.5ZM85.2027 32.276H96.6597V29.276H85.2027V32.276ZM98.0799 30.2931L92.3849 13.5431L89.5446 14.5089L95.2396 31.2589L98.0799 30.2931ZM89.5463 13.5381L83.7843 30.2881L86.6211 31.2639L92.3831 14.5139L89.5463 13.5381ZM157.585 48.572C150.512 48.572 145.023 46.3087 141.296 42.3739C137.559 38.4289 135.434 32.635 135.434 25.282H132.434C132.434 33.205 134.731 39.8061 139.118 44.4371C143.514 49.0783 149.85 51.572 157.585 51.572V48.572ZM135.434 25.282C135.434 17.8587 137.56 12.0313 141.298 8.07068C145.024 4.12115 150.512 1.858 157.585 1.858V-1.142C149.85 -1.142 143.513 1.35185 139.116 6.01181C134.729 10.6607 132.434 17.2953 132.434 25.282H135.434ZM157.585 1.858C164.622 1.858 170.093 4.11993 173.812 8.06956C177.542 12.0306 179.669 17.8587 179.669 25.282H182.669C182.669 17.2953 180.373 10.6614 175.996 6.01294C171.608 1.35307 165.287 -1.142 157.585 -1.142V1.858ZM179.669 25.282C179.669 32.6351 177.544 38.4296 173.814 42.3751C170.095 46.3099 164.622 48.572 157.585 48.572V51.572C165.287 51.572 171.607 49.0771 175.994 44.4359C180.372 39.8054 182.669 33.2049 182.669 25.282H179.669ZM144.494 25.282C144.494 30.2659 145.588 34.4454 147.828 37.4159C150.11 40.4431 153.468 42.058 157.585 42.058V39.058C154.332 39.058 151.894 37.8254 150.223 35.6098C148.51 33.3376 147.494 29.8791 147.494 25.282H144.494ZM157.585 42.058C161.702 42.058 165.059 40.4431 167.342 37.4159C169.581 34.4454 170.676 30.2659 170.676 25.282H167.676C167.676 29.8791 166.659 33.3376 164.946 35.6098C163.276 37.8254 160.838 39.058 157.585 39.058V42.058ZM170.676 25.282C170.676 20.2351 169.583 16.0226 167.344 13.0345C165.062 9.98777 161.703 8.372 157.585 8.372V11.372C160.837 11.372 163.273 12.6037 164.943 14.8333C166.658 17.1214 167.676 20.6139 167.676 25.282H170.676ZM157.585 8.372C153.467 8.372 150.108 9.98777 147.825 13.0345C145.586 16.0226 144.494 20.2351 144.494 25.282H147.494C147.494 20.6139 148.512 17.1214 150.226 14.8333C151.896 12.6037 154.333 11.372 157.585 11.372V8.372ZM217.592 27.292L217.203 25.8432L217.439 28.7842L217.592 27.292ZM225.699 35.466L224.203 35.581L224.204 35.5918L225.699 35.466ZM226.838 49V50.5H228.469L228.332 48.8742L226.838 49ZM215.113 49L213.617 49.1137L213.722 50.5H215.113V49ZM214.242 37.543L212.745 37.6428L212.746 37.6567L214.242 37.543ZM198.899 32.183V30.683H197.399V32.183H198.899ZM198.899 49V50.5H200.399V49H198.899ZM187.241 49H185.741V50.5H187.241V49ZM187.241 1.43V-0.0700026H185.741V1.43H187.241ZM198.899 22.669H197.399V24.169H198.899V22.669ZM198.899 10.944V9.444H197.399V10.944H198.899ZM209.016 2.93C213.674 2.93 217.678 4.1127 220.481 6.26312C223.238 8.3791 224.936 11.5046 224.936 15.701H227.936C227.936 10.5844 225.814 6.5744 222.307 3.88312C218.845 1.22629 214.139 -0.0700026 209.016 -0.0700026V2.93ZM224.936 15.701C224.936 18.5029 224.179 20.6912 222.894 22.3294C221.605 23.9717 219.697 25.1741 217.203 25.8432L217.98 28.7408C220.98 27.9359 223.494 26.4248 225.254 24.1811C227.017 21.9333 227.936 19.063 227.936 15.701H224.936ZM217.439 28.7842C219.868 29.0333 221.407 29.6949 222.393 30.6809C223.373 31.6605 224.018 33.1725 224.203 35.581L227.194 35.351C226.977 32.5335 226.182 30.2265 224.515 28.5596C222.854 26.8991 220.541 26.0867 217.745 25.7998L217.439 28.7842ZM224.204 35.5918L225.343 49.1258L228.332 48.8742L227.193 35.3402L224.204 35.5918ZM226.838 47.5H215.113V50.5H226.838V47.5ZM216.608 48.8863L215.737 37.4293L212.746 37.6567L213.617 49.1137L216.608 48.8863ZM215.738 37.4432C215.589 35.2075 214.925 33.3402 213.237 32.1349C211.66 31.0082 209.472 30.683 206.872 30.683V33.683C209.363 33.683 210.726 34.0278 211.494 34.5761C212.151 35.0458 212.626 35.8585 212.745 37.6428L215.738 37.4432ZM206.872 30.683H198.899V33.683H206.872V30.683ZM197.399 32.183V49H200.399V32.183H197.399ZM198.899 47.5H187.241V50.5H198.899V47.5ZM188.741 49V1.43H185.741V49H188.741ZM187.241 2.93H209.016V-0.0700026H187.241V2.93ZM198.899 24.169H207.073V21.169H198.899V24.169ZM207.073 24.169C209.67 24.169 211.905 23.614 213.523 22.3526C215.197 21.0463 216.01 19.1384 216.01 16.907H213.01C213.01 18.3606 212.515 19.3337 211.678 19.9871C210.782 20.6855 209.299 21.169 207.073 21.169V24.169ZM216.01 16.907C216.01 14.6009 215.216 12.6398 213.537 11.2969C211.914 9.99849 209.669 9.444 207.073 9.444V12.444C209.301 12.444 210.774 12.928 211.663 13.6396C212.497 14.3067 213.01 15.3271 213.01 16.907H216.01ZM207.073 9.444H198.899V12.444H207.073V9.444ZM197.399 10.944V22.669H200.399V10.944H197.399ZM231.667 49L230.256 48.4912L229.531 50.5H231.667V49ZM248.819 1.43V-0.0700026H247.765L247.408 0.921214L248.819 1.43ZM262.286 1.43L263.697 0.921214L263.339 -0.0700026H262.286V1.43ZM279.438 49V50.5H281.573L280.849 48.4912L279.438 49ZM267.512 49L266.096 49.4965L266.448 50.5H267.512V49ZM264.363 40.022L265.778 39.5255L265.426 38.522H264.363V40.022ZM246.675 40.022V38.522H245.604L245.256 39.535L246.675 40.022ZM243.593 49V50.5H244.664L245.012 49.487L243.593 49ZM249.824 30.776L248.405 30.2881L247.722 32.276H249.824V30.776ZM261.281 30.776V32.276H263.375L262.701 30.2931L261.281 30.776ZM255.586 14.026L257.006 13.5431L255.594 9.39062L254.167 13.5381L255.586 14.026ZM233.078 49.5088L250.23 1.93878L247.408 0.921214L230.256 48.4912L233.078 49.5088ZM248.819 2.93H262.286V-0.0700026H248.819V2.93ZM260.875 1.93878L278.027 49.5088L280.849 48.4912L263.697 0.921214L260.875 1.93878ZM279.438 47.5H267.512V50.5H279.438V47.5ZM268.927 48.5035L265.778 39.5255L262.947 40.5185L266.096 49.4965L268.927 48.5035ZM264.363 38.522H246.675V41.522H264.363V38.522ZM245.256 39.535L242.174 48.513L245.012 49.487L248.094 40.509L245.256 39.535ZM243.593 47.5H231.667V50.5H243.593V47.5ZM249.824 32.276H261.281V29.276H249.824V32.276ZM262.701 30.2931L257.006 13.5431L254.166 14.5089L259.861 31.2589L262.701 30.2931ZM254.167 13.5381L248.405 30.2881L251.242 31.2639L257.004 14.5139L254.167 13.5381ZM295.56 49L296.926 49.6188L297.06 49.3238V49H295.56ZM290.736 59.653V61.153H291.703L292.102 60.2718L290.736 59.653ZM284.572 59.653L283.133 59.2278L282.564 61.153H284.572V59.653ZM287.721 49L289.159 49.4252L289.728 47.5H287.721V49ZM283.634 49H282.134V50.5H283.634V49ZM283.634 38.213V36.713H282.134V38.213H283.634ZM295.56 38.213H297.06V36.713H295.56V38.213ZM294.193 48.3812L289.369 59.0342L292.102 60.2718L296.926 49.6188L294.193 48.3812ZM290.736 58.153H284.572V61.153H290.736V58.153ZM286.01 60.0782L289.159 49.4252L286.282 48.5748L283.133 59.2278L286.01 60.0782ZM287.721 47.5H283.634V50.5H287.721V47.5ZM285.134 49V38.213H282.134V49H285.134ZM283.634 39.713H295.56V36.713H283.634V39.713ZM294.06 38.213V49H297.06V38.213H294.06ZM317.315 1.43V-0.0700026H315.815V1.43H317.315ZM328.973 1.43H330.473V-0.0700026H328.973V1.43ZM328.973 49V50.5H330.473V49H328.973ZM317.315 49H315.815V50.5H317.315V49ZM317.315 2.93H328.973V-0.0700026H317.315V2.93ZM327.473 1.43V49H330.473V1.43H327.473ZM328.973 47.5H317.315V50.5H328.973V47.5ZM318.815 49V1.43H315.815V49H318.815ZM347.972 12.217L349.338 12.8358L349.472 12.5408V12.217H347.972ZM343.148 22.87V24.37H344.115L344.514 23.4888L343.148 22.87ZM336.984 22.87L335.546 22.4448L334.976 24.37H336.984V22.87ZM340.133 12.217L341.571 12.6422L342.141 10.717H340.133V12.217ZM336.046 12.217H334.546V13.717H336.046V12.217ZM336.046 1.43V-0.0700026H334.546V1.43H336.046ZM347.972 1.43H349.472V-0.0700026H347.972V1.43ZM346.606 11.5982L341.782 22.2512L344.514 23.4888L349.338 12.8358L346.606 11.5982ZM343.148 21.37H336.984V24.37H343.148V21.37ZM338.422 23.2952L341.571 12.6422L338.695 11.7918L335.546 22.4448L338.422 23.2952ZM340.133 10.717H336.046V13.717H340.133V10.717ZM337.546 12.217V1.43H334.546V12.217H337.546ZM336.046 2.93H347.972V-0.0700026H336.046V2.93ZM346.472 1.43V12.217H349.472V1.43H346.472ZM355.068 1.43V-0.0700026H353.568V1.43H355.068ZM370.478 1.43L371.897 0.943361L371.549 -0.0700026H370.478V1.43ZM381.6 33.858L380.181 34.3446L381.613 38.5193L383.021 34.3367L381.6 33.858ZM392.521 1.43V-0.0700026H391.443L391.099 0.951252L392.521 1.43ZM408.065 1.43H409.565V-0.0700026H408.065V1.43ZM408.065 49V50.5H409.565V49H408.065ZM396.407 49H394.907V50.5H396.407V49ZM396.407 19.587H397.907L394.993 19.0856L396.407 19.587ZM386.022 48.866V50.366H387.081L387.435 49.3674L386.022 48.866ZM377.044 48.866L375.629 49.3646L375.982 50.366H377.044V48.866ZM366.726 19.587L368.14 19.0884L365.226 19.587H366.726ZM366.726 49V50.5H368.226V49H366.726ZM355.068 49H353.568V50.5H355.068V49ZM355.068 2.93H370.478V-0.0700026H355.068V2.93ZM369.059 1.91663L380.181 34.3446L383.019 33.3714L371.897 0.943361L369.059 1.91663ZM383.021 34.3367L393.942 1.90874L391.099 0.951252L380.178 33.3793L383.021 34.3367ZM392.521 2.93H408.065V-0.0700026H392.521V2.93ZM406.565 1.43V49H409.565V1.43H406.565ZM408.065 47.5H396.407V50.5H408.065V47.5ZM397.907 49V19.587H394.907V49H397.907ZM394.993 19.0856L384.608 48.3646L387.435 49.3674L397.82 20.0884L394.993 19.0856ZM386.022 47.366H377.044V50.366H386.022V47.366ZM378.458 48.3674L368.14 19.0884L365.311 20.0856L375.629 49.3646L378.458 48.3674ZM365.226 19.587V49H368.226V19.587H365.226ZM366.726 47.5H355.068V50.5H366.726V47.5ZM356.568 49V1.43H353.568V49H356.568ZM431.948 49H430.448V50.5H431.948V49ZM431.948 1.43V-0.0700026H430.448V1.43H431.948ZM443.606 1.43H445.106V-0.0700026H443.606V1.43ZM443.606 39.486H442.106V40.986H443.606V39.486ZM464.912 39.486H466.412V37.986H464.912V39.486ZM464.912 49V50.5H466.412V49H464.912ZM433.448 49V1.43H430.448V49H433.448ZM431.948 2.93H443.606V-0.0700026H431.948V2.93ZM442.106 1.43V39.486H445.106V1.43H442.106ZM443.606 40.986H464.912V37.986H443.606V40.986ZM463.412 39.486V49H466.412V39.486H463.412ZM464.912 47.5H431.948V50.5H464.912V47.5ZM470.593 1.363V-0.137002H469.093V1.363H470.593ZM482.251 1.363H483.751V-0.137002H482.251V1.363ZM499.202 1.363V-0.137002H497.702V1.363H499.202ZM510.927 1.363H512.427V-0.137002H510.927V1.363ZM509.427 31.647C509.427 36.9136 507.619 41.097 504.478 43.9744C501.323 46.8649 496.673 48.572 490.76 48.572V51.572C497.242 51.572 502.675 49.6946 506.505 46.1866C510.349 42.6655 512.427 37.6364 512.427 31.647H509.427ZM490.76 48.572C484.847 48.572 480.197 46.8649 477.042 43.9744C473.901 41.097 472.093 36.9136 472.093 31.647H469.093C469.093 37.6364 471.171 42.6655 475.015 46.1866C478.845 49.6946 484.278 51.572 490.76 51.572V48.572ZM472.093 31.647V1.363H469.093V31.647H472.093ZM470.593 2.863H482.251V-0.137002H470.593V2.863ZM480.751 1.363V31.647H483.751V1.363H480.751ZM480.751 31.647C480.751 34.8599 481.631 37.5138 483.451 39.3651C485.274 41.2192 487.833 42.058 490.76 42.058V39.058C488.394 39.058 486.699 38.3893 485.59 37.2619C484.479 36.1317 483.751 34.3301 483.751 31.647H480.751ZM490.76 42.058C493.717 42.058 496.267 41.221 498.07 39.3558C499.865 37.4984 500.702 34.8433 500.702 31.647H497.702C497.702 34.3467 496.998 36.1471 495.912 37.2712C494.834 38.3875 493.163 39.058 490.76 39.058V42.058ZM500.702 31.647V1.363H497.702V31.647H500.702ZM499.202 2.863H510.927V-0.137002H499.202V2.863ZM509.427 1.363V31.647H512.427V1.363H509.427ZM519.035 1.43V-0.0700026H517.535V1.43H519.035ZM530.693 1.43H532.193V-0.0700026H530.693V1.43ZM530.693 21.195H529.193V25.4571L531.862 22.1345L530.693 21.195ZM546.572 1.43V-0.0700026H545.852L545.402 0.49054L546.572 1.43ZM559.971 1.43L561.137 2.37379L563.116 -0.0700026H559.971V1.43ZM542.887 22.535L541.721 21.5912L541.018 22.4593L541.648 23.3815L542.887 22.535ZM560.977 49V50.5H563.819L562.215 48.1535L560.977 49ZM547.911 49L546.668 49.8392L547.114 50.5H547.911V49ZM535.249 30.24L536.492 29.4008L535.379 27.7519L534.1 29.2755L535.249 30.24ZM530.693 35.667L529.544 34.7025L529.193 35.1208V35.667H530.693ZM530.693 49V50.5H532.193V49H530.693ZM519.035 49H517.535V50.5H519.035V49ZM519.035 2.93H530.693V-0.0700026H519.035V2.93ZM529.193 1.43V21.195H532.193V1.43H529.193ZM531.862 22.1345L547.741 2.36946L545.402 0.49054L529.523 20.2555L531.862 22.1345ZM546.572 2.93H559.971V-0.0700026H546.572V2.93ZM558.806 0.4862L541.721 21.5912L544.052 23.4788L561.137 2.37379L558.806 0.4862ZM541.648 23.3815L559.738 49.8465L562.215 48.1535L544.125 21.6885L541.648 23.3815ZM560.977 47.5H547.911V50.5H560.977V47.5ZM549.155 48.1608L536.492 29.4008L534.005 31.0792L546.668 49.8392L549.155 48.1608ZM534.1 29.2755L529.544 34.7025L531.841 36.6315L536.397 31.2045L534.1 29.2755ZM529.193 35.667V49H532.193V35.667H529.193ZM530.693 47.5H519.035V50.5H530.693V47.5ZM520.535 49V1.43H517.535V49H520.535ZM566.34 1.43V-0.0700026H564.84V1.43H566.34ZM600.51 1.43H602.01V-0.0700026H600.51V1.43ZM600.51 10.944V12.444H602.01V10.944H600.51ZM577.998 10.944V9.444H576.498V10.944H577.998ZM577.998 20.391H576.498V21.891H577.998V20.391ZM599.706 20.391H601.206V18.891H599.706V20.391ZM599.706 29.905V31.405H601.206V29.905H599.706ZM577.998 29.905V28.405H576.498V29.905H577.998ZM577.998 39.486H576.498V40.986H577.998V39.486ZM601.046 39.486H602.546V37.986H601.046V39.486ZM601.046 49V50.5H602.546V49H601.046ZM566.34 49H564.84V50.5H566.34V49ZM566.34 2.93H600.51V-0.0700026H566.34V2.93ZM599.01 1.43V10.944H602.01V1.43H599.01ZM600.51 9.444H577.998V12.444H600.51V9.444ZM576.498 10.944V20.391H579.498V10.944H576.498ZM577.998 21.891H599.706V18.891H577.998V21.891ZM598.206 20.391V29.905H601.206V20.391H598.206ZM599.706 28.405H577.998V31.405H599.706V28.405ZM576.498 29.905V39.486H579.498V29.905H576.498ZM577.998 40.986H601.046V37.986H577.998V40.986ZM599.546 39.486V49H602.546V39.486H599.546ZM601.046 47.5H566.34V50.5H601.046V47.5ZM567.84 49V1.43H564.84V49H567.84Z" fill="#262626"/>
</svg>
