<svg width="602" height="60" viewBox="0 0 602 60" fill="none" xmlns="http://www.w3.org/2000/svg">
<mask id="path-1-outside-1_473_241" maskUnits="userSpaceOnUse" x="-1" y="-1" width="604" height="62" fill="black">
<rect fill="white" x="-1" y="-1" width="604" height="62"/>
<path d="M0.700531 1.43H12.3585V21.195L28.2375 1.43H41.6375L24.5525 22.535L42.6425 49H29.5775L16.9145 30.24L12.3585 35.667V49H0.700531V1.43ZM49.1185 1.43H60.7765V49H49.1185V1.43ZM67.0457 49L84.1977 1.43H97.6647L114.817 49H102.891L99.7417 40.022H82.0537L78.9717 49H67.0457ZM85.2027 30.776H96.6597L90.9647 14.026L85.2027 30.776ZM157.585 50.072C142.778 50.072 133.934 40.558 133.934 25.282C133.934 9.872 142.778 0.357999 157.585 0.357999C172.325 0.357999 181.169 9.872 181.169 25.282C181.169 40.558 172.325 50.072 157.585 50.072ZM145.994 25.282C145.994 34.863 150.215 40.558 157.585 40.558C164.955 40.558 169.176 34.863 169.176 25.282C169.176 15.567 164.955 9.872 157.585 9.872C150.215 9.872 145.994 15.567 145.994 25.282ZM209.016 1.43C218.798 1.43 226.436 6.388 226.436 15.701C226.436 21.865 223.086 25.818 217.592 27.292C222.818 27.828 225.297 30.24 225.699 35.466L226.838 49H215.113L214.242 37.543C213.974 33.523 211.964 32.183 206.872 32.183H198.899V49H187.241V1.43H209.016ZM198.899 22.669H207.073C211.897 22.669 214.51 20.592 214.51 16.907C214.51 13.021 211.897 10.944 207.073 10.944H198.899V22.669ZM231.667 49L248.819 1.43H262.286L279.438 49H267.512L264.363 40.022H246.675L243.593 49H231.667ZM249.824 30.776H261.281L255.586 14.026L249.824 30.776ZM295.56 49L290.736 59.653H284.572L287.721 49H283.634V38.213H295.56V49ZM317.315 1.43H328.973V49H317.315V1.43ZM347.972 12.217L343.148 22.87H336.984L340.133 12.217H336.046V1.43H347.972V12.217ZM355.068 1.43H370.478L381.6 33.858L392.521 1.43H408.065V49H396.407V19.587L386.022 48.866H377.044L366.726 19.587V49H355.068V1.43ZM431.948 49V1.43H443.606V39.486H464.912V49H431.948ZM510.927 31.647C510.927 42.903 503.155 50.072 490.76 50.072C478.365 50.072 470.593 42.903 470.593 31.647V1.363H482.251V31.647C482.251 37.543 485.467 40.558 490.76 40.558C496.12 40.558 499.202 37.543 499.202 31.647V1.363H510.927V31.647ZM519.035 1.43H530.693V21.195L546.572 1.43H559.972L542.887 22.535L560.977 49H547.912L535.249 30.24L530.693 35.667V49H519.035V1.43ZM566.34 1.43H600.51V10.944H577.998V20.391H599.706V29.905H577.998V39.486H601.046V49H566.34V1.43Z"/>
</mask>
<path d="M0.700531 1.43H12.3585V21.195L28.2375 1.43H41.6375L24.5525 22.535L42.6425 49H29.5775L16.9145 30.24L12.3585 35.667V49H0.700531V1.43ZM49.1185 1.43H60.7765V49H49.1185V1.43ZM67.0457 49L84.1977 1.43H97.6647L114.817 49H102.891L99.7417 40.022H82.0537L78.9717 49H67.0457ZM85.2027 30.776H96.6597L90.9647 14.026L85.2027 30.776ZM157.585 50.072C142.778 50.072 133.934 40.558 133.934 25.282C133.934 9.872 142.778 0.357999 157.585 0.357999C172.325 0.357999 181.169 9.872 181.169 25.282C181.169 40.558 172.325 50.072 157.585 50.072ZM145.994 25.282C145.994 34.863 150.215 40.558 157.585 40.558C164.955 40.558 169.176 34.863 169.176 25.282C169.176 15.567 164.955 9.872 157.585 9.872C150.215 9.872 145.994 15.567 145.994 25.282ZM209.016 1.43C218.798 1.43 226.436 6.388 226.436 15.701C226.436 21.865 223.086 25.818 217.592 27.292C222.818 27.828 225.297 30.24 225.699 35.466L226.838 49H215.113L214.242 37.543C213.974 33.523 211.964 32.183 206.872 32.183H198.899V49H187.241V1.43H209.016ZM198.899 22.669H207.073C211.897 22.669 214.51 20.592 214.51 16.907C214.51 13.021 211.897 10.944 207.073 10.944H198.899V22.669ZM231.667 49L248.819 1.43H262.286L279.438 49H267.512L264.363 40.022H246.675L243.593 49H231.667ZM249.824 30.776H261.281L255.586 14.026L249.824 30.776ZM295.56 49L290.736 59.653H284.572L287.721 49H283.634V38.213H295.56V49ZM317.315 1.43H328.973V49H317.315V1.43ZM347.972 12.217L343.148 22.87H336.984L340.133 12.217H336.046V1.43H347.972V12.217ZM355.068 1.43H370.478L381.6 33.858L392.521 1.43H408.065V49H396.407V19.587L386.022 48.866H377.044L366.726 19.587V49H355.068V1.43ZM431.948 49V1.43H443.606V39.486H464.912V49H431.948ZM510.927 31.647C510.927 42.903 503.155 50.072 490.76 50.072C478.365 50.072 470.593 42.903 470.593 31.647V1.363H482.251V31.647C482.251 37.543 485.467 40.558 490.76 40.558C496.12 40.558 499.202 37.543 499.202 31.647V1.363H510.927V31.647ZM519.035 1.43H530.693V21.195L546.572 1.43H559.972L542.887 22.535L560.977 49H547.912L535.249 30.24L530.693 35.667V49H519.035V1.43ZM566.34 1.43H600.51V10.944H577.998V20.391H599.706V29.905H577.998V39.486H601.046V49H566.34V1.43Z" fill="#262626"/>
<path d="M0.700531 1.43V0.429997H-0.299469V1.43H0.700531ZM12.3585 1.43H13.3585V0.429997H12.3585V1.43ZM12.3585 21.195H11.3585V24.0364L13.1381 21.8213L12.3585 21.195ZM28.2375 1.43V0.429997H27.7582L27.458 0.803693L28.2375 1.43ZM41.6375 1.43L42.4148 2.0592L43.7337 0.429997H41.6375V1.43ZM24.5525 22.535L23.7753 21.9058L23.3068 22.4846L23.727 23.0993L24.5525 22.535ZM42.6425 49V50H44.5374L43.4681 48.4357L42.6425 49ZM29.5775 49L28.7487 49.5595L29.046 50H29.5775V49ZM16.9145 30.24L17.7434 29.6805L17.0014 28.5813L16.1486 29.597L16.9145 30.24ZM12.3585 35.667L11.5926 35.024L11.3585 35.3029V35.667H12.3585ZM12.3585 49V50H13.3585V49H12.3585ZM0.700531 49H-0.299469V50H0.700531V49ZM0.700531 2.43H12.3585V0.429997H0.700531V2.43ZM11.3585 1.43V21.195H13.3585V1.43H11.3585ZM13.1381 21.8213L29.0171 2.0563L27.458 0.803693L11.579 20.5687L13.1381 21.8213ZM28.2375 2.43H41.6375V0.429997H28.2375V2.43ZM40.8603 0.800799L23.7753 21.9058L25.3298 23.1642L42.4148 2.0592L40.8603 0.800799ZM23.727 23.0993L41.817 49.5643L43.4681 48.4357L25.3781 21.9707L23.727 23.0993ZM42.6425 48H29.5775V50H42.6425V48ZM30.4064 48.4405L17.7434 29.6805L16.0857 30.7995L28.7487 49.5595L30.4064 48.4405ZM16.1486 29.597L11.5926 35.024L13.1244 36.31L17.6804 30.883L16.1486 29.597ZM11.3585 35.667V49H13.3585V35.667H11.3585ZM12.3585 48H0.700531V50H12.3585V48ZM1.70053 49V1.43H-0.299469V49H1.70053ZM49.1185 1.43V0.429997H48.1185V1.43H49.1185ZM60.7765 1.43H61.7765V0.429997H60.7765V1.43ZM60.7765 49V50H61.7765V49H60.7765ZM49.1185 49H48.1185V50H49.1185V49ZM49.1185 2.43H60.7765V0.429997H49.1185V2.43ZM59.7765 1.43V49H61.7765V1.43H59.7765ZM60.7765 48H49.1185V50H60.7765V48ZM50.1185 49V1.43H48.1185V49H50.1185ZM67.0457 49L66.105 48.6608L65.6221 50H67.0457V49ZM84.1977 1.43V0.429997H83.4953L83.257 1.09081L84.1977 1.43ZM97.6647 1.43L98.6054 1.09081L98.3672 0.429997H97.6647V1.43ZM114.817 49V50H116.24L115.757 48.6608L114.817 49ZM102.891 49L101.947 49.331L102.182 50H102.891V49ZM99.7417 40.022L100.685 39.691L100.451 39.022H99.7417V40.022ZM82.0537 40.022V39.022H81.3397L81.1079 39.6973L82.0537 40.022ZM78.9717 49V50H79.6857L79.9175 49.3247L78.9717 49ZM85.2027 30.776L84.2571 30.4507L83.8012 31.776H85.2027V30.776ZM96.6597 30.776V31.776H98.0559L97.6065 30.4541L96.6597 30.776ZM90.9647 14.026L91.9115 13.7041L90.9702 10.9357L90.0191 13.7007L90.9647 14.026ZM67.9864 49.3392L85.1384 1.76919L83.257 1.09081L66.105 48.6608L67.9864 49.3392ZM84.1977 2.43H97.6647V0.429997H84.1977V2.43ZM96.724 1.76919L113.876 49.3392L115.757 48.6608L98.6054 1.09081L96.724 1.76919ZM114.817 48H102.891V50H114.817V48ZM103.834 48.669L100.685 39.691L98.7981 40.353L101.947 49.331L103.834 48.669ZM99.7417 39.022H82.0537V41.022H99.7417V39.022ZM81.1079 39.6973L78.0259 48.6753L79.9175 49.3247L82.9995 40.3467L81.1079 39.6973ZM78.9717 48H67.0457V50H78.9717V48ZM85.2027 31.776H96.6597V29.776H85.2027V31.776ZM97.6065 30.4541L91.9115 13.7041L90.0179 14.3479L95.7129 31.0979L97.6065 30.4541ZM90.0191 13.7007L84.2571 30.4507L86.1483 31.1013L91.9103 14.3513L90.0191 13.7007ZM157.585 49.072C150.402 49.072 144.771 46.7703 140.933 42.7178C137.087 38.6584 134.934 32.73 134.934 25.282H132.934C132.934 33.11 135.202 39.5766 139.481 44.0932C143.766 48.6167 149.961 51.072 157.585 51.072V49.072ZM134.934 25.282C134.934 17.7648 137.088 11.8029 140.934 7.72754C144.772 3.6596 150.402 1.358 157.585 1.358V-0.642001C149.961 -0.642001 143.765 1.8134 139.479 6.35496C135.201 10.8891 132.934 17.3892 132.934 25.282H134.934ZM157.585 1.358C164.733 1.358 170.346 3.65878 174.176 7.72679C178.014 11.8024 180.169 17.7648 180.169 25.282H182.169C182.169 17.3892 179.902 10.8896 175.632 6.35571C171.356 1.81421 165.177 -0.642001 157.585 -0.642001V1.358ZM180.169 25.282C180.169 32.73 178.015 38.6589 174.178 42.7185C170.347 46.7711 164.733 49.072 157.585 49.072V51.072C165.176 51.072 171.355 48.6159 175.631 44.0925C179.9 39.5761 182.169 33.11 182.169 25.282H180.169ZM144.994 25.282C144.994 30.2014 146.075 34.2608 148.227 37.1149C150.407 40.0068 153.612 41.558 157.585 41.558V39.558C154.188 39.558 151.596 38.2617 149.824 35.9108C148.023 33.5222 146.994 29.9436 146.994 25.282H144.994ZM157.585 41.558C161.558 41.558 164.762 40.0068 166.942 37.1149C169.094 34.2608 170.176 30.2014 170.176 25.282H168.176C168.176 29.9436 167.146 33.5222 165.345 35.9108C163.573 38.2617 160.982 39.558 157.585 39.558V41.558ZM170.176 25.282C170.176 20.2982 169.096 16.2057 166.944 13.3343C164.764 10.4238 161.558 8.872 157.585 8.872V10.872C160.981 10.872 163.571 12.1677 165.344 14.5335C167.145 16.9383 168.176 20.5508 168.176 25.282H170.176ZM157.585 8.872C153.611 8.872 150.406 10.4238 148.225 13.3343C146.074 16.2057 144.994 20.2982 144.994 25.282H146.994C146.994 20.5508 148.024 16.9383 149.826 14.5335C151.598 12.1677 154.188 10.872 157.585 10.872V8.872ZM217.592 27.292L217.332 26.3262L217.49 28.2868L217.592 27.292ZM225.699 35.466L224.701 35.5427L224.702 35.5499L225.699 35.466ZM226.838 49V50H227.925L227.834 48.9161L226.838 49ZM215.113 49L214.115 49.0758L214.186 50H215.113V49ZM214.242 37.543L213.244 37.6095L213.244 37.6188L214.242 37.543ZM198.899 32.183V31.183H197.899V32.183H198.899ZM198.899 49V50H199.899V49H198.899ZM187.241 49H186.241V50H187.241V49ZM187.241 1.43V0.429997H186.241V1.43H187.241ZM198.899 22.669H197.899V23.669H198.899V22.669ZM198.899 10.944V9.944H197.899V10.944H198.899ZM209.016 2.43C213.751 2.43 217.873 3.63163 220.785 5.86646C223.667 8.07832 225.436 11.3512 225.436 15.701H227.436C227.436 10.7378 225.385 6.87518 222.003 4.27979C218.65 1.70736 214.062 0.429997 209.016 0.429997V2.43ZM225.436 15.701C225.436 18.5963 224.652 20.8982 223.287 22.638C221.92 24.3806 219.911 25.6344 217.332 26.3262L217.851 28.2578C220.766 27.4756 223.179 26.0159 224.861 23.8725C226.544 21.7263 227.436 18.9697 227.436 15.701H225.436ZM217.49 28.2868C219.98 28.5422 221.649 29.2289 222.747 30.3274C223.841 31.4215 224.511 33.066 224.702 35.5427L226.696 35.3893C226.484 32.64 225.714 30.4655 224.161 28.9131C222.613 27.3651 220.429 26.5778 217.694 26.2972L217.49 28.2868ZM224.702 35.5499L225.841 49.0839L227.834 48.9161L226.695 35.3821L224.702 35.5499ZM226.838 48H215.113V50H226.838V48ZM216.11 48.9242L215.239 37.4672L213.244 37.6188L214.115 49.0758L216.11 48.9242ZM215.239 37.4765C215.095 35.316 214.463 33.6245 212.947 32.5418C211.504 31.5115 209.454 31.183 206.872 31.183V33.183C209.381 33.183 210.882 33.5245 211.784 34.1692C212.614 34.7615 213.12 35.75 213.244 37.6095L215.239 37.4765ZM206.872 31.183H198.899V33.183H206.872V31.183ZM197.899 32.183V49H199.899V32.183H197.899ZM198.899 48H187.241V50H198.899V48ZM188.241 49V1.43H186.241V49H188.241ZM187.241 2.43H209.016V0.429997H187.241V2.43ZM198.899 23.669H207.073V21.669H198.899V23.669ZM207.073 23.669C209.608 23.669 211.718 23.1259 213.215 21.9584C214.75 20.7609 215.51 19.0088 215.51 16.907H213.51C213.51 18.4902 212.962 19.6191 211.985 20.3814C210.969 21.1735 209.361 21.669 207.073 21.669V23.669ZM215.51 16.907C215.51 14.7219 214.763 12.9176 213.225 11.6874C211.724 10.4867 209.607 9.944 207.073 9.944V11.944C209.362 11.944 210.964 12.4398 211.975 13.2491C212.95 14.0289 213.51 15.206 213.51 16.907H215.51ZM207.073 9.944H198.899V11.944H207.073V9.944ZM197.899 10.944V22.669H199.899V10.944H197.899ZM231.667 49L230.726 48.6608L230.243 50H231.667V49ZM248.819 1.43V0.429997H248.116L247.878 1.09081L248.819 1.43ZM262.286 1.43L263.227 1.09081L262.988 0.429997H262.286V1.43ZM279.438 49V50H280.861L280.379 48.6608L279.438 49ZM267.512 49L266.568 49.331L266.803 50H267.512V49ZM264.363 40.022L265.306 39.691L265.072 39.022H264.363V40.022ZM246.675 40.022V39.022H245.961L245.729 39.6973L246.675 40.022ZM243.593 49V50H244.307L244.539 49.3247L243.593 49ZM249.824 30.776L248.878 30.4507L248.422 31.776H249.824V30.776ZM261.281 30.776V31.776H262.677L262.228 30.4541L261.281 30.776ZM255.586 14.026L256.533 13.7041L255.591 10.9357L254.64 13.7007L255.586 14.026ZM232.608 49.3392L249.76 1.76919L247.878 1.09081L230.726 48.6608L232.608 49.3392ZM248.819 2.43H262.286V0.429997H248.819V2.43ZM261.345 1.76919L278.497 49.3392L280.379 48.6608L263.227 1.09081L261.345 1.76919ZM279.438 48H267.512V50H279.438V48ZM268.455 48.669L265.306 39.691L263.419 40.353L266.568 49.331L268.455 48.669ZM264.363 39.022H246.675V41.022H264.363V39.022ZM245.729 39.6973L242.647 48.6753L244.539 49.3247L247.621 40.3467L245.729 39.6973ZM243.593 48H231.667V50H243.593V48ZM249.824 31.776H261.281V29.776H249.824V31.776ZM262.228 30.4541L256.533 13.7041L254.639 14.3479L260.334 31.0979L262.228 30.4541ZM254.64 13.7007L248.878 30.4507L250.769 31.1013L256.531 14.3513L254.64 13.7007ZM295.56 49L296.471 49.4125L296.56 49.2159V49H295.56ZM290.736 59.653V60.653H291.381L291.647 60.0655L290.736 59.653ZM284.572 59.653L283.613 59.3695L283.233 60.653H284.572V59.653ZM287.721 49L288.68 49.2835L289.059 48H287.721V49ZM283.634 49H282.634V50H283.634V49ZM283.634 38.213V37.213H282.634V38.213H283.634ZM295.56 38.213H296.56V37.213H295.56V38.213ZM294.649 48.5875L289.825 59.2405L291.647 60.0655L296.471 49.4125L294.649 48.5875ZM290.736 58.653H284.572V60.653H290.736V58.653ZM285.531 59.9365L288.68 49.2835L286.762 48.7165L283.613 59.3695L285.531 59.9365ZM287.721 48H283.634V50H287.721V48ZM284.634 49V38.213H282.634V49H284.634ZM283.634 39.213H295.56V37.213H283.634V39.213ZM294.56 38.213V49H296.56V38.213H294.56ZM317.315 1.43V0.429997H316.315V1.43H317.315ZM328.973 1.43H329.973V0.429997H328.973V1.43ZM328.973 49V50H329.973V49H328.973ZM317.315 49H316.315V50H317.315V49ZM317.315 2.43H328.973V0.429997H317.315V2.43ZM327.973 1.43V49H329.973V1.43H327.973ZM328.973 48H317.315V50H328.973V48ZM318.315 49V1.43H316.315V49H318.315ZM347.972 12.217L348.883 12.6295L348.972 12.4329V12.217H347.972ZM343.148 22.87V23.87H343.793L344.059 23.2825L343.148 22.87ZM336.984 22.87L336.025 22.5865L335.646 23.87H336.984V22.87ZM340.133 12.217L341.092 12.5005L341.471 11.217H340.133V12.217ZM336.046 12.217H335.046V13.217H336.046V12.217ZM336.046 1.43V0.429997H335.046V1.43H336.046ZM347.972 1.43H348.972V0.429997H347.972V1.43ZM347.061 11.8045L342.237 22.4575L344.059 23.2825L348.883 12.6295L347.061 11.8045ZM343.148 21.87H336.984V23.87H343.148V21.87ZM337.943 23.1535L341.092 12.5005L339.174 11.9335L336.025 22.5865L337.943 23.1535ZM340.133 11.217H336.046V13.217H340.133V11.217ZM337.046 12.217V1.43H335.046V12.217H337.046ZM336.046 2.43H347.972V0.429997H336.046V2.43ZM346.972 1.43V12.217H348.972V1.43H346.972ZM355.068 1.43V0.429997H354.068V1.43H355.068ZM370.478 1.43L371.424 1.10557L371.192 0.429997H370.478V1.43ZM381.6 33.858L380.654 34.1824L381.608 36.9656L382.547 34.1772L381.6 33.858ZM392.521 1.43V0.429997H391.802L391.573 1.11083L392.521 1.43ZM408.065 1.43H409.065V0.429997H408.065V1.43ZM408.065 49V50H409.065V49H408.065ZM396.407 49H395.407V50H396.407V49ZM396.407 19.587H397.407L395.464 19.2527L396.407 19.587ZM386.022 48.866V49.866H386.728L386.964 49.2003L386.022 48.866ZM377.044 48.866L376.101 49.1984L376.336 49.866H377.044V48.866ZM366.726 19.587L367.669 19.2546L365.726 19.587H366.726ZM366.726 49V50H367.726V49H366.726ZM355.068 49H354.068V50H355.068V49ZM355.068 2.43H370.478V0.429997H355.068V2.43ZM369.532 1.75442L380.654 34.1824L382.546 33.5336L371.424 1.10557L369.532 1.75442ZM382.547 34.1772L393.468 1.74916L391.573 1.11083L380.652 33.5388L382.547 34.1772ZM392.521 2.43H408.065V0.429997H392.521V2.43ZM407.065 1.43V49H409.065V1.43H407.065ZM408.065 48H396.407V50H408.065V48ZM397.407 49V19.587H395.407V49H397.407ZM395.464 19.2527L385.079 48.5317L386.964 49.2003L397.349 19.9213L395.464 19.2527ZM386.022 47.866H377.044V49.866H386.022V47.866ZM377.987 48.5336L367.669 19.2546L365.783 19.9194L376.101 49.1984L377.987 48.5336ZM365.726 19.587V49H367.726V19.587H365.726ZM366.726 48H355.068V50H366.726V48ZM356.068 49V1.43H354.068V49H356.068ZM431.948 49H430.948V50H431.948V49ZM431.948 1.43V0.429997H430.948V1.43H431.948ZM443.606 1.43H444.606V0.429997H443.606V1.43ZM443.606 39.486H442.606V40.486H443.606V39.486ZM464.912 39.486H465.912V38.486H464.912V39.486ZM464.912 49V50H465.912V49H464.912ZM432.948 49V1.43H430.948V49H432.948ZM431.948 2.43H443.606V0.429997H431.948V2.43ZM442.606 1.43V39.486H444.606V1.43H442.606ZM443.606 40.486H464.912V38.486H443.606V40.486ZM463.912 39.486V49H465.912V39.486H463.912ZM464.912 48H431.948V50H464.912V48ZM470.593 1.363V0.362998H469.593V1.363H470.593ZM482.251 1.363H483.251V0.362998H482.251V1.363ZM499.202 1.363V0.362998H498.202V1.363H499.202ZM510.927 1.363H511.927V0.362998H510.927V1.363ZM509.927 31.647C509.927 37.0341 508.074 41.3584 504.816 44.3431C501.548 47.3365 496.768 49.072 490.76 49.072V51.072C497.147 51.072 502.45 49.223 506.167 45.8179C509.894 42.4041 511.927 37.5159 511.927 31.647H509.927ZM490.76 49.072C484.752 49.072 479.971 47.3365 476.704 44.3431C473.446 41.3584 471.593 37.0341 471.593 31.647H469.593C469.593 37.5159 471.626 42.4041 475.353 45.8179C479.07 49.223 484.373 51.072 490.76 51.072V49.072ZM471.593 31.647V1.363H469.593V31.647H471.593ZM470.593 2.363H482.251V0.362998H470.593V2.363ZM481.251 1.363V31.647H483.251V1.363H481.251ZM481.251 31.647C481.251 34.7716 482.106 37.2835 483.808 39.0146C485.511 40.7476 487.927 41.558 490.76 41.558V39.558C488.3 39.558 486.461 38.8609 485.234 37.6124C484.004 36.362 483.251 34.4184 483.251 31.647H481.251ZM490.76 41.558C493.624 41.558 496.028 40.7488 497.71 39.0084C499.387 37.2732 500.202 34.7605 500.202 31.647H498.202C498.202 34.4295 497.476 36.3723 496.272 37.6186C495.073 38.8597 493.256 39.558 490.76 39.558V41.558ZM500.202 31.647V1.363H498.202V31.647H500.202ZM499.202 2.363H510.927V0.362998H499.202V2.363ZM509.927 1.363V31.647H511.927V1.363H509.927ZM519.035 1.43V0.429997H518.035V1.43H519.035ZM530.693 1.43H531.693V0.429997H530.693V1.43ZM530.693 21.195H529.693V24.0364L531.472 21.8213L530.693 21.195ZM546.572 1.43V0.429997H546.092L545.792 0.803693L546.572 1.43ZM559.971 1.43L560.749 2.0592L562.068 0.429997H559.971V1.43ZM542.887 22.535L542.109 21.9058L541.641 22.4846L542.061 23.0993L542.887 22.535ZM560.977 49V50H562.871L561.802 48.4357L560.977 49ZM547.911 49L547.083 49.5595L547.38 50H547.911V49ZM535.249 30.24L536.077 29.6805L535.335 28.5813L534.483 29.597L535.249 30.24ZM530.693 35.667L529.927 35.024L529.693 35.3029V35.667H530.693ZM530.693 49V50H531.693V49H530.693ZM519.035 49H518.035V50H519.035V49ZM519.035 2.43H530.693V0.429997H519.035V2.43ZM529.693 1.43V21.195H531.693V1.43H529.693ZM531.472 21.8213L547.351 2.0563L545.792 0.803693L529.913 20.5687L531.472 21.8213ZM546.572 2.43H559.971V0.429997H546.572V2.43ZM559.194 0.800799L542.109 21.9058L543.664 23.1642L560.749 2.0592L559.194 0.800799ZM542.061 23.0993L560.151 49.5643L561.802 48.4357L543.712 21.9707L542.061 23.0993ZM560.977 48H547.911V50H560.977V48ZM548.74 48.4405L536.077 29.6805L534.42 30.7995L547.083 49.5595L548.74 48.4405ZM534.483 29.597L529.927 35.024L531.458 36.31L536.014 30.883L534.483 29.597ZM529.693 35.667V49H531.693V35.667H529.693ZM530.693 48H519.035V50H530.693V48ZM520.035 49V1.43H518.035V49H520.035ZM566.34 1.43V0.429997H565.34V1.43H566.34ZM600.51 1.43H601.51V0.429997H600.51V1.43ZM600.51 10.944V11.944H601.51V10.944H600.51ZM577.998 10.944V9.944H576.998V10.944H577.998ZM577.998 20.391H576.998V21.391H577.998V20.391ZM599.706 20.391H600.706V19.391H599.706V20.391ZM599.706 29.905V30.905H600.706V29.905H599.706ZM577.998 29.905V28.905H576.998V29.905H577.998ZM577.998 39.486H576.998V40.486H577.998V39.486ZM601.046 39.486H602.046V38.486H601.046V39.486ZM601.046 49V50H602.046V49H601.046ZM566.34 49H565.34V50H566.34V49ZM566.34 2.43H600.51V0.429997H566.34V2.43ZM599.51 1.43V10.944H601.51V1.43H599.51ZM600.51 9.944H577.998V11.944H600.51V9.944ZM576.998 10.944V20.391H578.998V10.944H576.998ZM577.998 21.391H599.706V19.391H577.998V21.391ZM598.706 20.391V29.905H600.706V20.391H598.706ZM599.706 28.905H577.998V30.905H599.706V28.905ZM576.998 29.905V39.486H578.998V29.905H576.998ZM577.998 40.486H601.046V38.486H577.998V40.486ZM600.046 39.486V49H602.046V39.486H600.046ZM601.046 48H566.34V50H601.046V48ZM567.34 49V1.43H565.34V49H567.34Z" fill="#262626" mask="url(#path-1-outside-1_473_241)"/>
</svg>
