<svg width="137" height="30" viewBox="0 0 137 30" fill="none" xmlns="http://www.w3.org/2000/svg">
<path d="M12.245 11.295C11.895 9.475 10.285 8.495 8.255 8.495C6.575 8.495 5.07 9.265 5.105 10.84C5.175 12.52 7.17 12.905 9.41 13.43C12.98 14.27 16.34 15.74 16.34 19.1C16.34 22.775 12.945 24.42 8.885 24.42C4.44 24.42 0.905 21.97 0.625 18.05L4.65 17.84C4.93 19.8 6.645 20.955 8.885 20.955C10.67 20.955 12.35 20.535 12.35 18.96C12.35 17.315 10.25 17 8.115 16.51C4.44 15.635 1.115 14.165 1.115 10.91C1.115 7.235 4.51 5.03 8.57 5.03C12.56 5.03 15.64 7.41 16.235 11.085L12.245 11.295ZM26.2313 0.549999H30.0463V5.45H37.1513V8.81H30.0463V18.155C30.0463 19.695 30.8863 20.64 32.4263 20.64H37.0813V24H32.0413C28.0163 24 26.2313 21.935 26.2313 18.47V8.81H21.0163V5.45H26.2313V0.549999ZM41.5827 5.45H45.6777L50.6477 19.52L55.5127 5.45H59.5377L52.1877 25.96C51.3827 28.235 49.8427 29.25 47.3577 29.25H44.7327V25.96H46.9027C47.8827 25.96 48.4427 25.61 48.7927 24.7L49.3527 23.265H48.2677L41.5827 5.45ZM64.249 5.45H67.714L67.854 8.53C68.799 6.185 70.759 5.03 73.209 5.03C77.269 5.03 79.264 7.97 79.264 12.065V24H75.484V12.94C75.484 9.79 74.469 8.145 72.089 8.145C69.604 8.145 68.029 9.79 68.029 12.94V24H64.249V5.45ZM84.0103 14.725C84.0103 8.81 87.4053 5.03 92.6903 5.03C96.9603 5.03 100.845 7.795 101.055 14.48L101.09 15.74H88.0353C88.3153 19.03 89.9953 20.955 92.6903 20.955C94.4753 20.955 96.0503 19.94 96.7853 18.19L100.81 18.54C99.7603 22.145 96.5053 24.42 92.6903 24.42C87.4053 24.42 84.0103 20.64 84.0103 14.725ZM88.1403 12.905H96.9603C96.4703 9.685 94.6853 8.495 92.6903 8.495C90.2053 8.495 88.5953 10.105 88.1403 12.905ZM117.177 11.295C116.827 9.475 115.217 8.495 113.187 8.495C111.507 8.495 110.002 9.265 110.037 10.84C110.107 12.52 112.102 12.905 114.342 13.43C117.912 14.27 121.272 15.74 121.272 19.1C121.272 22.775 117.877 24.42 113.817 24.42C109.372 24.42 105.837 21.97 105.557 18.05L109.582 17.84C109.862 19.8 111.577 20.955 113.817 20.955C115.602 20.955 117.282 20.535 117.282 18.96C117.282 17.315 115.182 17 113.047 16.51C109.372 15.635 106.047 14.165 106.047 10.91C106.047 7.235 109.442 5.03 113.502 5.03C117.492 5.03 120.572 7.41 121.167 11.085L117.177 11.295ZM132.073 19.415H136.763V24H132.073V19.415Z" fill="white"/>
</svg>
