<svg width="18" height="18" viewBox="0 0 18 18" fill="none" xmlns="http://www.w3.org/2000/svg">
<path d="M9 0C4.02955 0 0 4.02914 0 9C0 13.9709 4.02955 18 9 18C13.9705 18 18 13.9709 18 9C18 4.02914 13.9705 0 9 0ZM13.3909 12.974C13.2464 13.23 12.9805 13.374 12.7064 13.374C12.5782 13.374 12.4459 13.342 12.3245 13.2745C11.2009 12.6445 9.97637 12.2585 8.68228 12.1275C7.38546 11.9975 6.105 12.1291 4.875 12.5219C4.46455 12.6529 4.02273 12.4261 3.89182 12.015C3.75955 11.6032 3.98727 11.1629 4.39909 11.0311C5.83364 10.5728 7.32954 10.417 8.84045 10.5705C10.3486 10.724 11.7777 11.174 13.0895 11.9093C13.4673 12.1196 13.6023 12.5966 13.3909 12.974ZM14.4682 10.2404C14.3291 10.508 14.0564 10.6616 13.7741 10.6616C13.6514 10.6616 13.5286 10.6335 13.4127 10.5728C12.0314 9.85336 10.5395 9.40786 8.97545 9.24914C7.39908 9.08782 5.83773 9.22841 4.33228 9.66259C3.91637 9.78068 3.48273 9.54286 3.3641 9.12709C3.2441 8.712 3.48409 8.27836 3.89863 8.1585C5.59772 7.66854 7.35954 7.51159 9.13363 7.69159C10.8955 7.87105 12.5782 8.37286 14.1368 9.18504C14.5186 9.38482 14.6686 9.85718 14.4682 10.2404ZM14.8582 7.96609C14.7409 7.96609 14.6223 7.93964 14.5091 7.884C12.87 7.06664 11.1068 6.55759 9.26727 6.37091C7.42499 6.18245 5.59227 6.32809 3.81818 6.80182C3.40091 6.91255 2.97272 6.66505 2.86091 6.24709C2.74909 5.82968 2.99728 5.40055 3.41592 5.28914C5.37273 4.76659 7.39636 4.60745 9.42682 4.81391C11.4545 5.01914 13.3991 5.58109 15.2073 6.48286C15.5945 6.67568 15.7514 7.146 15.5591 7.53246C15.4227 7.8075 15.1459 7.96609 14.8582 7.96609Z" fill="#262626"/>
</svg>
